<?xml version="1.0" encoding="UTF-8"?>
<svg xmlns="http://www.w3.org/2000/svg" width="2200" height="1340" viewBox="0 0 2200 1340">
<style>text{font-family:Arial,sans-serif;fill:#24353a}.title{font-size:28px;font-weight:700}.sub{font-size:15px;fill:#52676a}.label{font-size:13px}.tiny{font-size:11px;fill:#52676a}.parcel{font-size:12px;font-weight:700}.opening{font-size:10px;font-weight:700}.panel{fill:#fbfaf5;stroke:#87959a;stroke-width:1.5}.axis{stroke:#52676a;stroke-width:1}.solid{stroke:#3c5157;stroke-width:5}.open{stroke:#c2534d;stroke-width:5;stroke-dasharray:8 5}</style>
<rect width="2200" height="1340" fill="#f5f1e8"/>
<defs><pattern id="zero-build" width="8" height="8" patternUnits="userSpaceOnUse" patternTransform="rotate(45)"><line x1="0" y1="0" x2="0" y2="8" stroke="#c2534d" stroke-width="2"/></pattern><marker id="camera-arrow" markerWidth="8" markerHeight="8" refX="7" refY="3" orient="auto"><path d="M0,0 L8,3 L0,6 Z" fill="#573d7a"/></marker></defs>
<text class="title" x="48" y="48">BZ-04 / R7 b e store facade composition · BLD_B_E_STORE · Structure</text>
<text class="sub" x="48" y="76">UNTEXTURED STRUCTURE DRAWING · neutral clay/ink · dimensions in metres · composition review only</text>
<rect class="panel" x="48" y="105" width="1080" height="1165" rx="8"/><rect class="panel" x="1160" y="105" width="990" height="1165" rx="8"/>
<text id="principal-elevation" class="title" x="80" y="158">PRINCIPAL EAST ELEVATION</text><text id="transverse-section" class="title" x="1210" y="158">TRANSVERSE SECTION</text>
<text class="sub" x="80" y="184">Receiving store with upper stock rooms</text><text class="sub" x="1210" y="184">Through the principal entrance and floor structure</text>
<rect x="150.00" y="396.31" width="385.70" height="763.69" fill="#ddd7ca" stroke="#24353a" stroke-width="2"/>
<rect x="150.00" y="340.00" width="385.70" height="56.31" fill="#d1cabb" stroke="#687477"/>
<line x1="150.00" y1="382.43" x2="535.70" y2="382.43" stroke="#b8b5ad" stroke-width="3"/>
<line x1="150.00" y1="347.71" x2="535.70" y2="347.71" stroke="#cbc6ba" stroke-width="3"/>
<line x1="150.00" y1="340.00" x2="535.70" y2="340.00" stroke="#565d5d" stroke-width="3"/>
<defs><clipPath id="surround-B_E_STORE-DOOR"><rect x="261.08" y="927.81" width="163.54" height="232.19"/></clipPath></defs>
<g clip-path="url(#surround-B_E_STORE-DOOR)">
<path d="M 273.42 1160.00 L 273.42 979.72 Q 342.85 900.58 412.28 979.72 L 412.28 1160.00" fill="none" stroke="#a4a4a0" stroke-width="24.68" stroke-linejoin="round"/>
</g>
<defs><clipPath id="b-clip-B_E_STORE-DOOR"><path d="M 273.42 1160.00 L 273.42 979.72 Q 342.85 900.58 412.28 979.72 L 412.28 1160.00 Z"/></clipPath></defs>
<path d="M 273.42 1160.00 L 273.42 979.72 Q 342.85 900.58 412.28 979.72 L 412.28 1160.00 Z" fill="#ddd6c4" stroke="#a39276" stroke-width="0.00"/>
<path d="M 273.42 1160.00 L 273.42 979.72 Q 342.85 900.58 412.28 979.72 L 412.28 1160.00 Z" fill="#8e8d85" stroke="#4c514d" stroke-width="1.1"/>
<g clip-path="url(#b-clip-B_E_STORE-DOOR)">
<rect x="278.82" y="1065.46" width="58.63" height="83.74" fill="none" stroke="#bfa988" stroke-width="1"/>
<rect x="278.82" y="952.49" width="58.63" height="99.78" fill="none" stroke="#bfa988" stroke-width="1"/>
<rect x="348.25" y="1065.46" width="58.63" height="83.74" fill="none" stroke="#bfa988" stroke-width="1"/>
<rect x="348.25" y="952.49" width="58.63" height="99.78" fill="none" stroke="#bfa988" stroke-width="1"/>
</g>
<path d="M 273.42 1160.00 L 273.42 979.72 Q 342.85 900.58 412.28 979.72 L 412.28 1160.00 Z" fill="none" stroke="#4c514d" stroke-width="1.3"/>
<defs><clipPath id="relief-B_E_STORE-DOOR"><path d="M 273.42 1160.00 L 273.42 979.72 Q 342.85 900.58 412.28 979.72 L 412.28 1160.00 Z"/></clipPath></defs>
<g clip-path="url(#relief-B_E_STORE-DOOR)">
<path d="M 285.77 1160.00 V 940.15" stroke="#70706c" stroke-width=".6"/>
<path d="M 298.11 1160.00 V 940.15" stroke="#70706c" stroke-width=".6"/>
<path d="M 310.45 1160.00 V 940.15" stroke="#70706c" stroke-width=".6"/>
<path d="M 322.79 1160.00 V 940.15" stroke="#70706c" stroke-width=".6"/>
<path d="M 335.14 1160.00 V 940.15" stroke="#70706c" stroke-width=".6"/>
<path d="M 347.48 1160.00 V 940.15" stroke="#70706c" stroke-width=".6"/>
<path d="M 359.82 1160.00 V 940.15" stroke="#70706c" stroke-width=".6"/>
<path d="M 372.16 1160.00 V 940.15" stroke="#70706c" stroke-width=".6"/>
<path d="M 384.51 1160.00 V 940.15" stroke="#70706c" stroke-width=".6"/>
<path d="M 396.85 1160.00 V 940.15" stroke="#70706c" stroke-width=".6"/>
<path d="M 409.19 1160.00 V 940.15" stroke="#70706c" stroke-width=".6"/>
</g>
<defs><clipPath id="b-clip-B_E_STORE-L2-B1"><path d="M 277.28 527.45 L 277.28 477.31 L 408.42 477.31 L 408.42 527.45 Z"/></clipPath></defs>
<path d="M 277.28 527.45 L 277.28 477.31 L 408.42 477.31 L 408.42 527.45 Z" fill="#ddd6c4" stroke="#a39276" stroke-width="7.71"/>
<path d="M 277.28 527.45 L 277.28 477.31 L 408.42 477.31 L 408.42 527.45 Z" fill="#8e8d85" stroke="#4c514d" stroke-width="1.1"/>
<g clip-path="url(#b-clip-B_E_STORE-L2-B1)">
<path d="M 281.14 521.28 H 404.56" stroke="#bba786" stroke-width="1"/>
<path d="M 281.14 515.11 H 404.56" stroke="#bba786" stroke-width="1"/>
<path d="M 281.14 508.94 H 404.56" stroke="#bba786" stroke-width="1"/>
<path d="M 281.14 502.77 H 404.56" stroke="#bba786" stroke-width="1"/>
<path d="M 281.14 496.59 H 404.56" stroke="#bba786" stroke-width="1"/>
<path d="M 281.14 490.42 H 404.56" stroke="#bba786" stroke-width="1"/>
<path d="M 281.14 484.25 H 404.56" stroke="#bba786" stroke-width="1"/>
<path d="M 281.14 478.08 H 404.56" stroke="#bba786" stroke-width="1"/>
</g>
<path d="M 277.28 527.45 L 277.28 477.31 L 408.42 477.31 L 408.42 527.45 Z" fill="none" stroke="#4c514d" stroke-width="1.3"/>
<defs><clipPath id="b-clip-B_E_STORE_LOADING"><path d="M 261.85 874.58 L 261.85 708.73 L 423.85 708.73 L 423.85 874.58 Z"/></clipPath></defs>
<path d="M 261.85 874.58 L 261.85 708.73 L 423.85 708.73 L 423.85 874.58 Z" fill="#ddd6c4" stroke="#a39276" stroke-width="7.71"/>
<path d="M 261.85 874.58 L 261.85 708.73 L 423.85 708.73 L 423.85 874.58 Z" fill="#8e8d85" stroke="#4c514d" stroke-width="1.1"/>
<g clip-path="url(#b-clip-B_E_STORE_LOADING)">
<rect x="267.25" y="803.27" width="70.20" height="60.52" fill="none" stroke="#bfa988" stroke-width="1"/>
<rect x="267.25" y="721.07" width="70.20" height="72.24" fill="none" stroke="#bfa988" stroke-width="1"/>
<rect x="348.25" y="803.27" width="70.20" height="60.52" fill="none" stroke="#bfa988" stroke-width="1"/>
<rect x="348.25" y="721.07" width="70.20" height="72.24" fill="none" stroke="#bfa988" stroke-width="1"/>
</g>
<path d="M 261.85 874.58 L 261.85 708.73 L 423.85 708.73 L 423.85 874.58 Z" fill="none" stroke="#4c514d" stroke-width="1.3"/>
<rect x="335.91" y="678.65" width="13.89" height="23.14" fill="#8f8d85" stroke="#66594a" stroke-width="1"/>
<line x1="150.00" y1="1160.00" x2="535.70" y2="1160.00" stroke="#687477" stroke-width="1.3"/><text class="tiny" x="545.70" y="1164.00">L floor 0 / slab 3.3</text>
<text class="tiny" x="545.70" y="1041.20">receiving store</text>
<line x1="150.00" y1="905.44" x2="535.70" y2="905.44" stroke="#687477" stroke-width="1.3"/><text class="tiny" x="545.70" y="909.44">L1 floor 3.3 / slab 6.6</text>
<text class="tiny" x="545.70" y="786.64">hand-carried sack sorti…</text>
<line x1="150.00" y1="650.87" x2="535.70" y2="650.87" stroke="#687477" stroke-width="1.3"/><text class="tiny" x="545.70" y="654.87">L2 floor 6.6 / slab 9.9</text>
<text class="tiny" x="545.70" y="532.08">high dry storage</text>
<line x1="342.85" y1="1160.00" x2="342.85" y2="922.41" stroke="#929b9a" stroke-width=".8" stroke-dasharray="4 4"/><text class="tiny" x="342.85" y="1175.00" text-anchor="middle">83.5</text>
<line x1="342.85" y1="905.44" x2="342.85" y2="667.85" stroke="#929b9a" stroke-width=".8" stroke-dasharray="4 4"/><text class="tiny" x="342.85" y="920.44" text-anchor="middle">83.5</text>
<line x1="342.85" y1="650.87" x2="342.85" y2="413.28" stroke="#929b9a" stroke-width=".8" stroke-dasharray="4 4"/><text class="tiny" x="342.85" y="665.87" text-anchor="middle">83.5</text>
<line x1="150.00" y1="1214.00" x2="535.70" y2="1214.00" stroke="#899294"/><text class="label" x="342.85" y="1231.00" text-anchor="middle">overall facade 5 m · lower dimensions are ground pier bays</text>
<line x1="150.00" y1="1244.00" x2="535.70" y2="1244.00" stroke="#a2aaab"/><text class="tiny" x="342.85" y="1258.00" text-anchor="middle">5</text>
<circle cx="342.85" cy="928.15" r="5" fill="#b44b42"/><text class="tiny" x="342.85" y="919.15" text-anchor="middle">principal entrance</text>
<rect x="1305.00" y="396.31" width="277.70" height="763.69" fill="#e5e1d8" stroke="#24353a" stroke-width="2"/>
<rect x="1305.00" y="382.43" width="277.70" height="13.89" fill="#818987"/>
<rect x="1305.00" y="340.00" width="12.34" height="42.43" fill="#a5a398" stroke="#687477"/>
<rect x="1570.36" y="340.00" width="12.34" height="42.43" fill="#a5a398" stroke="#687477"/>
<rect x="1312.71" y="922.41" width="262.28" height="237.59" fill="#f7f4ec" stroke="#687477" stroke-width="1"/><text class="tiny" x="1443.85" y="1041.20" text-anchor="middle">receiving entrance</text>
<rect x="1312.71" y="667.85" width="262.28" height="237.59" fill="#f7f4ec" stroke="#687477" stroke-width="1"/><text class="tiny" x="1443.85" y="786.64" text-anchor="middle">continuous upper sort…</text>
<rect x="1312.71" y="413.28" width="262.28" height="237.59" fill="#f7f4ec" stroke="#687477" stroke-width="1"/><text class="tiny" x="1443.85" y="532.08" text-anchor="middle">Single loading stack …</text>
<rect x="1305.00" y="905.44" width="277.70" height="16.97" fill="#818987"/>
<rect x="1305.00" y="650.87" width="277.70" height="16.97" fill="#818987"/>
<rect x="1305.00" y="396.31" width="277.70" height="16.97" fill="#818987"/>
<path d="M 1305.00 1160.00 L 1335.86 1160.00 L 1335.86 940.15 L 1305.00 940.15" fill="none" stroke="#b44b42" stroke-width="3"/>
<line x1="1305.00" y1="1190.00" x2="1582.70" y2="1190.00" stroke="#899294"/><text class="label" x="1443.85" y="1207.00" text-anchor="middle">enclosure depth 3.6 m</text>
<text class="label" x="1230" y="1238">section opening 1.8 W × 2.85 H × 0.4 recess</text>
<text class="tiny" x="1230" y="1256">opening support/return depth 0.4 m · closure: closed double timber leaves</text>
<text class="tiny" x="1210" y="232">Upper recesses show projected sill/head envelopes; exact curved profiles follow the instance opening schedule.</text>
<rect x="1305.00" y="477.31" width="32.40" height="50.14" fill="#d0c7b4" stroke="#8f5548" stroke-width="2"/>
<rect x="1305.00" y="708.73" width="29.31" height="165.85" fill="#d0c7b4" stroke="#8f5548" stroke-width="2"/>
<rect x="1254.86" y="678.65" width="84.85" height="23.14" fill="#a99b84" stroke="#475255"/>
<text id="structural-grid" class="tiny" x="80" y="1242">Bay edges: 81, 86</text>
<text class="tiny" x="1210" y="210">Roof: One closed structural roof with a perimeter parapet; no detached roof boxes</text>
</svg>
