<?xml version="1.0" encoding="UTF-8"?>
<svg xmlns="http://www.w3.org/2000/svg" width="1900" height="805" viewBox="0 0 1900 805">
<style>text{font-family:Arial,sans-serif;fill:#24353a}.title{font-size:28px;font-weight:700}.sub{font-size:15px;fill:#52676a}.label{font-size:13px}.tiny{font-size:11px;fill:#52676a}.parcel{font-size:12px;font-weight:700}.opening{font-size:10px;font-weight:700}.panel{fill:#fbfaf5;stroke:#87959a;stroke-width:1.5}.axis{stroke:#52676a;stroke-width:1}.solid{stroke:#3c5157;stroke-width:5}.open{stroke:#c2534d;stroke-width:5;stroke-dasharray:8 5}</style>
<rect width="1900" height="805" fill="#f5f1e8"/>
<defs><pattern id="zero-build" width="8" height="8" patternUnits="userSpaceOnUse" patternTransform="rotate(45)"><line x1="0" y1="0" x2="0" y2="8" stroke="#c2534d" stroke-width="2"/></pattern><marker id="camera-arrow" markerWidth="8" markerHeight="8" refX="7" refY="3" orient="auto"><path d="M0,0 L8,3 L0,6 Z" fill="#573d7a"/></marker></defs>
<text class="title" x="48" y="48">BZ-04 / R7 link south east facade-centered upper openings · LINK_SOUTH_EAST · East elevation</text>
<text class="sub" x="48" y="76">MEASURED FACADE DRAWING · actual floor contact, opening heads and scheduled closures · absolute design elevations</text>
<rect class="panel" x="48" y="115" width="1800" height="650" rx="8"/>
<text class="title" x="76" y="157">EAST elevation</text>
<line class="axis" x1="108.00" y1="615.00" x2="404.43" y2="615.00"/>
<line class="solid" x1="108.00" y1="615.00" x2="226.57" y2="615.00"/>
<rect x="226.57" y="602.00" width="177.86" height="13" fill="url(#zero-build)"/><text class="tiny" x="315.50" y="642.00" text-anchor="middle">ZERO BUILD</text>
<polygon points="108.00,615.00 108.00,348.21 226.57,348.21 226.57,615.00" fill="#e8dfcb" stroke="#24353a" stroke-width="1.5"/>
<polygon points="108.00,615.00 226.57,615.00 226.57,579.43 108.00,579.43" fill="#b6a185" fill-opacity=".82"/>
<polygon points="108.00,579.43 226.57,579.43 226.57,377.86 108.00,377.86" fill="#ddd0b3" fill-opacity=".82"/>
<polygon points="108.00,377.86 226.57,377.86 226.57,348.21 108.00,348.21" fill="#d9c9ae" fill-opacity=".82"/>
<polygon points="108.00,615.00 226.57,615.00 226.57,579.43 108.00,579.43" fill="#b6a185" fill-opacity=".52" stroke="#766345" stroke-width="1.2"/>
<rect x="108.00" y="348.21" width="118.57" height="29.64" fill="#d9c7aa" fill-opacity=".62" stroke="#766345" stroke-width="1.2"/>
<polygon points="108.00,615.00 108.00,348.21 117.49,348.21 117.49,615.00" fill="#c3b69f" fill-opacity=".82" stroke="#5e696a" stroke-width="1.4"/>
<polygon points="217.09,615.00 217.09,348.21 226.57,348.21 226.57,615.00" fill="#c3b69f" fill-opacity=".82" stroke="#5e696a" stroke-width="1.4"/>
<rect x="108.00" y="341.10" width="118.57" height="7.11" fill="#d8c9ad" stroke="#8b7451"/>
<line x1="108.00" y1="341.10" x2="226.57" y2="341.10" stroke="#d4c39e" stroke-width="2"/>
<line x1="108.00" y1="341.10" x2="226.57" y2="341.10" stroke="#e2d1ad" stroke-width="2"/>
<line x1="108.00" y1="341.10" x2="226.57" y2="341.10" stroke="#8b7451" stroke-width="2"/>
<text class="parcel" x="167.29" y="331.10" text-anchor="middle">P1</text>
<text class="tiny" x="108" y="657">along 8..13 m · vertical absolute z</text>
<text class="label" x="1220" y="187">PARCEL KEY</text>
<text class="tiny" x="1220" y="213.00">P1 lse-e</text>
<text class="tiny" x="1220" y="227.00">slab 4.5..4.62</text>
<text class="tiny" x="1220" y="241.00">parapet 4.62 · cap 4.62</text>
<path d="M 108.00 665 V 675 M 108.00 670 H 167.29 M 167.29 665 V 675" stroke="#24353a" fill="none"/><text class="tiny" x="175.29" y="674">1 m scale bar; horizontal = vertical</text>
<text class="tiny" x="1220" y="645">Floor at span ends: +0 / +0 m</text>
<text class="label" x="76" y="711">COMPLETE OPENING SCHEDULE · metres · axis is absolute plan coordinate; sill/head are absolute z</text>
<text class="tiny" x="76" y="736">Key / stable opening ID</text>
<text class="tiny" x="458" y="736">Storey / axis</text>
<text class="tiny" x="648" y="736">Width / sill / head</text>
<text class="tiny" x="903" y="736">Complete scheduled closure</text>
<text class="tiny" x="76" y="760">No scheduled openings on this face.</text>
</svg>
