<?xml version="1.0" encoding="UTF-8"?>
<svg xmlns="http://www.w3.org/2000/svg" width="1900" height="2839" viewBox="0 0 1900 2839">
<style>text{font-family:Arial,sans-serif;fill:#24353a}.title{font-size:28px;font-weight:700}.sub{font-size:15px;fill:#52676a}.label{font-size:13px}.tiny{font-size:11px;fill:#52676a}.parcel{font-size:12px;font-weight:700}.opening{font-size:10px;font-weight:700}.panel{fill:#fbfaf5;stroke:#87959a;stroke-width:1.5}.axis{stroke:#52676a;stroke-width:1}.solid{stroke:#3c5157;stroke-width:5}.open{stroke:#c2534d;stroke-width:5;stroke-dasharray:8 5}</style>
<rect width="1900" height="2839" fill="#f5f1e8"/>
<defs><pattern id="zero-build" width="8" height="8" patternUnits="userSpaceOnUse" patternTransform="rotate(45)"><line x1="0" y1="0" x2="0" y2="8" stroke="#c2534d" stroke-width="2"/></pattern><marker id="camera-arrow" markerWidth="8" markerHeight="8" refX="7" refY="3" orient="auto"><path d="M0,0 L8,3 L0,6 Z" fill="#573d7a"/></marker></defs>
<text class="title" x="48" y="48">BZ-04 / R7 link south east facade-centered upper openings · LINK_SOUTH_EAST · Four elevations</text>
<text class="sub" x="48" y="76">MEASURED FACADE DRAWING · actual floor contact, opening heads and scheduled closures · absolute design elevations</text>
<rect class="panel" x="48" y="115" width="1800" height="650" rx="8"/>
<text class="title" x="76" y="157">NORTH elevation</text>
<line class="axis" x1="108.00" y1="615.00" x2="483.81" y2="615.00"/>
<line class="solid" x1="108.00" y1="615.00" x2="483.81" y2="615.00"/>
<polygon points="108.00,615.00 108.00,373.41 290.54,373.41 290.54,615.00" fill="#e8dfcb" stroke="#24353a" stroke-width="1.5"/>
<polygon points="108.00,615.00 290.54,615.00 290.54,582.79 108.00,582.79" fill="#b6a185" fill-opacity=".82"/>
<polygon points="108.00,582.79 290.54,582.79 290.54,400.25 108.00,400.25" fill="#c6a16c" fill-opacity=".82"/>
<polygon points="108.00,400.25 290.54,400.25 290.54,373.41 108.00,373.41" fill="#d9c9ae" fill-opacity=".82"/>
<polygon points="108.00,615.00 290.54,615.00 290.54,582.79 108.00,582.79" fill="#b6a185" fill-opacity=".52" stroke="#766345" stroke-width="1.2"/>
<rect x="108.00" y="373.41" width="182.54" height="26.84" fill="#d9c7aa" fill-opacity=".62" stroke="#766345" stroke-width="1.2"/>
<polygon points="108.00,615.00 108.00,373.41 116.59,373.41 116.59,615.00" fill="#c3b69f" fill-opacity=".82" stroke="#5e696a" stroke-width="1.4"/>
<rect x="108.00" y="366.97" width="182.54" height="6.44" fill="#d8c9ad" stroke="#8b7451"/>
<line x1="108.00" y1="366.97" x2="290.54" y2="366.97" stroke="#d4c39e" stroke-width="2"/>
<line x1="108.00" y1="366.97" x2="290.54" y2="366.97" stroke="#e2d1ad" stroke-width="2"/>
<line x1="108.00" y1="366.97" x2="290.54" y2="366.97" stroke="#8b7451" stroke-width="2"/>
<text class="parcel" x="199.27" y="356.97" text-anchor="middle">P1</text>
<polygon points="290.54,615.00 290.54,239.19 483.81,239.19 483.81,615.00" fill="#e8dfcb" stroke="#24353a" stroke-width="1.5"/>
<polygon points="290.54,615.00 483.81,615.00 483.81,239.19 290.54,239.19" fill="#c6a16c" fill-opacity=".82"/>
<rect x="290.54" y="200.00" width="193.27" height="39.19" fill="#d8c9ad" stroke="#8b7451"/>
<line x1="290.54" y1="229.53" x2="483.81" y2="229.53" stroke="#d4c39e" stroke-width="2"/>
<line x1="290.54" y1="205.37" x2="483.81" y2="205.37" stroke="#e2d1ad" stroke-width="2"/>
<line x1="290.54" y1="200.00" x2="483.81" y2="200.00" stroke="#8b7451" stroke-width="2"/>
<text class="parcel" x="387.17" y="190.00" text-anchor="middle">P2</text>
<line x1="290.54" x2="483.81" y1="427.10" y2="427.10" stroke="#416779" stroke-width=".8" stroke-dasharray="7 5"/><text x="293.54" y="423.10" font-size="10" fill="#234452">L1 +3.5 m</text>
<text class="tiny" x="108" y="657">along 39..46 m · vertical absolute z</text>
<text class="label" x="1220" y="187">PARCEL KEY</text>
<text class="tiny" x="1220" y="213.00">P1 lse-n</text>
<text class="tiny" x="1220" y="227.00">slab 4.5..4.62</text>
<text class="tiny" x="1220" y="241.00">parapet 4.62 · cap 4.62</text>
<text class="tiny" x="1220" y="263.00">P2 lse-n-part-2</text>
<text class="tiny" x="1220" y="277.00">slab 7..7.18</text>
<text class="tiny" x="1220" y="291.00">parapet 7.63 · cap 7.73</text>
<path d="M 108.00 665 V 675 M 108.00 670 H 161.69 M 161.69 665 V 675" stroke="#24353a" fill="none"/><text class="tiny" x="169.69" y="674">1 m scale bar; horizontal = vertical</text>
<text class="tiny" x="1220" y="645">Floor at span ends: +0 / +0 m</text>
<text class="label" x="76" y="711">COMPLETE OPENING SCHEDULE · metres · axis is absolute plan coordinate; sill/head are absolute z</text>
<text class="tiny" x="76" y="736">Key / stable opening ID</text>
<text class="tiny" x="458" y="736">Storey / axis</text>
<text class="tiny" x="648" y="736">Width / sill / head</text>
<text class="tiny" x="903" y="736">Complete scheduled closure</text>
<text class="tiny" x="76" y="760">No scheduled openings on this face.</text>
<rect class="panel" x="48" y="793" width="1800" height="650" rx="8"/>
<text class="title" x="76" y="835">EAST elevation</text>
<line class="axis" x1="108.00" y1="1293.00" x2="404.43" y2="1293.00"/>
<line class="solid" x1="108.00" y1="1293.00" x2="226.57" y2="1293.00"/>
<rect x="226.57" y="1280.00" width="177.86" height="13" fill="url(#zero-build)"/><text class="tiny" x="315.50" y="1320.00" text-anchor="middle">ZERO BUILD</text>
<polygon points="108.00,1293.00 108.00,1026.21 226.57,1026.21 226.57,1293.00" fill="#e8dfcb" stroke="#24353a" stroke-width="1.5"/>
<polygon points="108.00,1293.00 226.57,1293.00 226.57,1257.43 108.00,1257.43" fill="#b6a185" fill-opacity=".82"/>
<polygon points="108.00,1257.43 226.57,1257.43 226.57,1055.86 108.00,1055.86" fill="#ddd0b3" fill-opacity=".82"/>
<polygon points="108.00,1055.86 226.57,1055.86 226.57,1026.21 108.00,1026.21" fill="#d9c9ae" fill-opacity=".82"/>
<polygon points="108.00,1293.00 226.57,1293.00 226.57,1257.43 108.00,1257.43" fill="#b6a185" fill-opacity=".52" stroke="#766345" stroke-width="1.2"/>
<rect x="108.00" y="1026.21" width="118.57" height="29.64" fill="#d9c7aa" fill-opacity=".62" stroke="#766345" stroke-width="1.2"/>
<polygon points="108.00,1293.00 108.00,1026.21 117.49,1026.21 117.49,1293.00" fill="#c3b69f" fill-opacity=".82" stroke="#5e696a" stroke-width="1.4"/>
<polygon points="217.09,1293.00 217.09,1026.21 226.57,1026.21 226.57,1293.00" fill="#c3b69f" fill-opacity=".82" stroke="#5e696a" stroke-width="1.4"/>
<rect x="108.00" y="1019.10" width="118.57" height="7.11" fill="#d8c9ad" stroke="#8b7451"/>
<line x1="108.00" y1="1019.10" x2="226.57" y2="1019.10" stroke="#d4c39e" stroke-width="2"/>
<line x1="108.00" y1="1019.10" x2="226.57" y2="1019.10" stroke="#e2d1ad" stroke-width="2"/>
<line x1="108.00" y1="1019.10" x2="226.57" y2="1019.10" stroke="#8b7451" stroke-width="2"/>
<text class="parcel" x="167.29" y="1009.10" text-anchor="middle">P1</text>
<text class="tiny" x="108" y="1335">along 8..13 m · vertical absolute z</text>
<text class="label" x="1220" y="865">PARCEL KEY</text>
<text class="tiny" x="1220" y="891.00">P1 lse-e</text>
<text class="tiny" x="1220" y="905.00">slab 4.5..4.62</text>
<text class="tiny" x="1220" y="919.00">parapet 4.62 · cap 4.62</text>
<path d="M 108.00 1343 V 1353 M 108.00 1348 H 167.29 M 167.29 1343 V 1353" stroke="#24353a" fill="none"/><text class="tiny" x="175.29" y="1352">1 m scale bar; horizontal = vertical</text>
<text class="tiny" x="1220" y="1323">Floor at span ends: +0 / +0 m</text>
<text class="label" x="76" y="1389">COMPLETE OPENING SCHEDULE · metres · axis is absolute plan coordinate; sill/head are absolute z</text>
<text class="tiny" x="76" y="1414">Key / stable opening ID</text>
<text class="tiny" x="458" y="1414">Storey / axis</text>
<text class="tiny" x="648" y="1414">Width / sill / head</text>
<text class="tiny" x="903" y="1414">Complete scheduled closure</text>
<text class="tiny" x="76" y="1438">No scheduled openings on this face.</text>
<rect class="panel" x="48" y="1471" width="1800" height="650" rx="8"/>
<text class="title" x="76" y="1513">SOUTH elevation</text>
<line class="axis" x1="108.00" y1="1971.00" x2="373.78" y2="1971.00"/>
<line class="solid" x1="108.00" y1="1971.00" x2="373.78" y2="1971.00"/>
<polygon points="108.00,1971.00 108.00,1583.72 229.50,1583.72 229.50,1971.00" fill="#e8dfcb" stroke="#24353a" stroke-width="1.5"/>
<polygon points="108.00,1971.00 229.50,1971.00 229.50,1583.72 108.00,1583.72" fill="#ddd0b3" fill-opacity=".82"/>
<rect x="108.00" y="1556.00" width="121.50" height="27.72" fill="#d8c9ad" stroke="#8b7451"/>
<line x1="108.00" y1="1576.88" x2="229.50" y2="1576.88" stroke="#d4c39e" stroke-width="2"/>
<line x1="108.00" y1="1559.80" x2="229.50" y2="1559.80" stroke="#e2d1ad" stroke-width="2"/>
<line x1="108.00" y1="1556.00" x2="229.50" y2="1556.00" stroke="#8b7451" stroke-width="2"/>
<text class="parcel" x="168.75" y="1546.00" text-anchor="middle">P1</text>
<line x1="108.00" x2="229.50" y1="1841.91" y2="1841.91" stroke="#416779" stroke-width=".8" stroke-dasharray="7 5"/><text x="111.00" y="1837.91" font-size="10" fill="#234452">L1 +3.4 m</text>
<line x1="108.00" x2="229.50" y1="1712.81" y2="1712.81" stroke="#416779" stroke-width=".8" stroke-dasharray="7 5"/><text x="111.00" y="1708.81" font-size="10" fill="#234452">L2 +6.8 m</text>
<polygon points="229.50,1971.00 229.50,1800.14 373.78,1800.14 373.78,1971.00" fill="#e8dfcb" stroke="#24353a" stroke-width="1.5"/>
<polygon points="229.50,1971.00 373.78,1971.00 373.78,1948.22 229.50,1948.22" fill="#b6a185" fill-opacity=".82"/>
<polygon points="229.50,1948.22 373.78,1948.22 373.78,1819.12 229.50,1819.12" fill="#b6a185" fill-opacity=".82"/>
<polygon points="229.50,1819.12 373.78,1819.12 373.78,1800.14 229.50,1800.14" fill="#d9c9ae" fill-opacity=".82"/>
<polygon points="229.50,1971.00 373.78,1971.00 373.78,1948.22 229.50,1948.22" fill="#b6a185" fill-opacity=".52" stroke="#766345" stroke-width="1.2"/>
<rect x="229.50" y="1800.14" width="144.28" height="18.98" fill="#d9c7aa" fill-opacity=".62" stroke="#766345" stroke-width="1.2"/>
<polygon points="234.82,1971.00 234.82,1800.14 246.97,1800.14 246.97,1971.00" fill="#c3b69f" fill-opacity=".82" stroke="#5e696a" stroke-width="1.4"/>
<polygon points="367.71,1971.00 367.71,1800.14 373.78,1800.14 373.78,1971.00" fill="#c3b69f" fill-opacity=".82" stroke="#5e696a" stroke-width="1.4"/>
<rect x="229.50" y="1795.58" width="144.28" height="4.56" fill="#d8c9ad" stroke="#8b7451"/>
<line x1="229.50" y1="1795.58" x2="373.78" y2="1795.58" stroke="#d4c39e" stroke-width="2"/>
<line x1="229.50" y1="1795.58" x2="373.78" y2="1795.58" stroke="#e2d1ad" stroke-width="2"/>
<line x1="229.50" y1="1795.58" x2="373.78" y2="1795.58" stroke="#8b7451" stroke-width="2"/>
<text class="parcel" x="301.64" y="1785.58" text-anchor="middle">P2</text>
<text class="tiny" x="108" y="2013">along 39..46 m · vertical absolute z</text>
<text class="label" x="1220" y="1543">PARCEL KEY</text>
<text class="tiny" x="1220" y="1569.00">P1 lse-s</text>
<text class="tiny" x="1220" y="1583.00">slab 10.2..10.38</text>
<text class="tiny" x="1220" y="1597.00">parapet 10.83 · cap 10.93</text>
<text class="tiny" x="1220" y="1619.00">P2 lse-s-part-2</text>
<text class="tiny" x="1220" y="1633.00">slab 4.5..4.62</text>
<text class="tiny" x="1220" y="1647.00">parapet 4.62 · cap 4.62</text>
<path d="M 108.00 2021 V 2031 M 108.00 2026 H 145.97 M 145.97 2021 V 2031" stroke="#24353a" fill="none"/><text class="tiny" x="153.97" y="2030">1 m scale bar; horizontal = vertical</text>
<text class="tiny" x="1220" y="2001">Floor at span ends: +0 / +0 m</text>
<text class="label" x="76" y="2067">COMPLETE OPENING SCHEDULE · metres · axis is absolute plan coordinate; sill/head are absolute z</text>
<text class="tiny" x="76" y="2092">Key / stable opening ID</text>
<text class="tiny" x="458" y="2092">Storey / axis</text>
<text class="tiny" x="648" y="2092">Width / sill / head</text>
<text class="tiny" x="903" y="2092">Complete scheduled closure</text>
<text class="tiny" x="76" y="2116">No scheduled openings on this face.</text>
<rect class="panel" x="48" y="2149" width="1800" height="650" rx="8"/>
<text class="title" x="76" y="2191">WEST elevation</text>
<line class="axis" x1="108.00" y1="2649.00" x2="404.43" y2="2649.00"/>
<rect x="108.00" y="2636.00" width="296.43" height="13" fill="url(#zero-build)"/><text class="tiny" x="256.21" y="2676.00" text-anchor="middle">ZERO BUILD</text>
<text class="tiny" x="108" y="2691">along 8..13 m · vertical absolute z</text>
<text class="label" x="1220" y="2221">PARCEL KEY</text>
<path d="M 108.00 2699 V 2709 M 108.00 2704 H 167.29 M 167.29 2699 V 2709" stroke="#24353a" fill="none"/><text class="tiny" x="175.29" y="2708">1 m scale bar; horizontal = vertical</text>
<text class="tiny" x="1220" y="2679">Floor at span ends: +0 / +0 m</text>
<text class="label" x="76" y="2745">COMPLETE OPENING SCHEDULE · metres · axis is absolute plan coordinate; sill/head are absolute z</text>
<text class="tiny" x="76" y="2770">Key / stable opening ID</text>
<text class="tiny" x="458" y="2770">Storey / axis</text>
<text class="tiny" x="648" y="2770">Width / sill / head</text>
<text class="tiny" x="903" y="2770">Complete scheduled closure</text>
<text class="tiny" x="76" y="2794">No scheduled openings on this face.</text>
</svg>
