<?xml version="1.0" encoding="UTF-8"?>
<svg xmlns="http://www.w3.org/2000/svg" width="1900" height="2839" viewBox="0 0 1900 2839">
<style>text{font-family:Arial,sans-serif;fill:#24353a}.title{font-size:28px;font-weight:700}.sub{font-size:15px;fill:#52676a}.label{font-size:13px}.tiny{font-size:11px;fill:#52676a}.parcel{font-size:12px;font-weight:700}.opening{font-size:10px;font-weight:700}.panel{fill:#fbfaf5;stroke:#87959a;stroke-width:1.5}.axis{stroke:#52676a;stroke-width:1}.solid{stroke:#3c5157;stroke-width:5}.open{stroke:#c2534d;stroke-width:5;stroke-dasharray:8 5}</style>
<rect width="1900" height="2839" fill="#f5f1e8"/>
<defs><pattern id="zero-build" width="8" height="8" patternUnits="userSpaceOnUse" patternTransform="rotate(45)"><line x1="0" y1="0" x2="0" y2="8" stroke="#c2534d" stroke-width="2"/></pattern><marker id="camera-arrow" markerWidth="8" markerHeight="8" refX="7" refY="3" orient="auto"><path d="M0,0 L8,3 L0,6 Z" fill="#573d7a"/></marker></defs>
<text class="title" x="48" y="48">BZ-04 / R7 link west upper facade-centered upper openings · LINK_WEST_UPPER · Four elevations</text>
<text class="sub" x="48" y="76">MEASURED FACADE DRAWING · actual floor contact, opening heads and scheduled closures · absolute design elevations</text>
<rect class="panel" x="48" y="115" width="1800" height="650" rx="8"/>
<text class="title" x="76" y="157">NORTH elevation</text>
<line class="axis" x1="108.00" y1="615.00" x2="226.57" y2="615.00"/>
<line class="solid" x1="108.00" y1="615.00" x2="226.57" y2="615.00"/>
<polygon points="108.00,615.00 108.00,348.21 226.57,348.21 226.57,615.00" fill="#e8dfcb" stroke="#24353a" stroke-width="1.5"/>
<polygon points="108.00,615.00 226.57,615.00 226.57,579.43 108.00,579.43" fill="#b6a185" fill-opacity=".82"/>
<polygon points="108.00,579.43 226.57,579.43 226.57,377.86 108.00,377.86" fill="#bda985" fill-opacity=".82"/>
<polygon points="108.00,377.86 226.57,377.86 226.57,348.21 108.00,348.21" fill="#d9c9ae" fill-opacity=".82"/>
<polygon points="108.00,615.00 226.57,615.00 226.57,579.43 108.00,579.43" fill="#bda985" fill-opacity=".52" stroke="#766345" stroke-width="1.2"/>
<rect x="108.00" y="348.21" width="118.57" height="29.64" fill="#d9c7aa" fill-opacity=".62" stroke="#766345" stroke-width="1.2"/>
<polygon points="108.00,615.00 108.00,348.21 117.49,348.21 117.49,615.00" fill="#c3b69f" fill-opacity=".82" stroke="#5e696a" stroke-width="1.4"/>
<polygon points="217.09,615.00 217.09,348.21 226.57,348.21 226.57,615.00" fill="#c3b69f" fill-opacity=".82" stroke="#5e696a" stroke-width="1.4"/>
<rect x="108.00" y="341.10" width="118.57" height="7.11" fill="#d8c9ad" stroke="#8b7451"/>
<line x1="108.00" y1="341.10" x2="226.57" y2="341.10" stroke="#d4c39e" stroke-width="2"/>
<line x1="108.00" y1="341.10" x2="226.57" y2="341.10" stroke="#e2d1ad" stroke-width="2"/>
<line x1="108.00" y1="341.10" x2="226.57" y2="341.10" stroke="#8b7451" stroke-width="2"/>
<text class="parcel" x="167.29" y="331.10" text-anchor="middle">P1</text>
<text class="tiny" x="108" y="657">along 19..21 m · vertical absolute z</text>
<text class="label" x="1220" y="187">PARCEL KEY</text>
<text class="tiny" x="1220" y="213.00">P1 lwu-n</text>
<text class="tiny" x="1220" y="227.00">slab 4.5..4.62</text>
<text class="tiny" x="1220" y="241.00">parapet 4.62 · cap 4.62</text>
<path d="M 108.00 665 V 675 M 108.00 670 H 167.29 M 167.29 665 V 675" stroke="#24353a" fill="none"/><text class="tiny" x="175.29" y="674">1 m scale bar; horizontal = vertical</text>
<text class="tiny" x="1220" y="645">Floor at span ends: +0 / +0 m</text>
<text class="label" x="76" y="711">COMPLETE OPENING SCHEDULE · metres · axis is absolute plan coordinate; sill/head are absolute z</text>
<text class="tiny" x="76" y="736">Key / stable opening ID</text>
<text class="tiny" x="458" y="736">Storey / axis</text>
<text class="tiny" x="648" y="736">Width / sill / head</text>
<text class="tiny" x="903" y="736">Complete scheduled closure</text>
<text class="tiny" x="76" y="760">No scheduled openings on this face.</text>
<rect class="panel" x="48" y="793" width="1800" height="650" rx="8"/>
<text class="title" x="76" y="835">EAST elevation</text>
<line class="axis" x1="108.00" y1="1293.00" x2="374.79" y2="1293.00"/>
<rect x="108.00" y="1280.00" width="266.79" height="13" fill="url(#zero-build)"/><text class="tiny" x="241.39" y="1320.00" text-anchor="middle">ZERO BUILD</text>
<text class="tiny" x="108" y="1335">along 72..76.5 m · vertical absolute z</text>
<text class="label" x="1220" y="865">PARCEL KEY</text>
<path d="M 108.00 1343 V 1353 M 108.00 1348 H 167.29 M 167.29 1343 V 1353" stroke="#24353a" fill="none"/><text class="tiny" x="175.29" y="1352">1 m scale bar; horizontal = vertical</text>
<text class="tiny" x="1220" y="1323">Floor at span ends: +0 / +0 m</text>
<text class="label" x="76" y="1389">COMPLETE OPENING SCHEDULE · metres · axis is absolute plan coordinate; sill/head are absolute z</text>
<text class="tiny" x="76" y="1414">Key / stable opening ID</text>
<text class="tiny" x="458" y="1414">Storey / axis</text>
<text class="tiny" x="648" y="1414">Width / sill / head</text>
<text class="tiny" x="903" y="1414">Complete scheduled closure</text>
<text class="tiny" x="76" y="1438">No scheduled openings on this face.</text>
<rect class="panel" x="48" y="1471" width="1800" height="650" rx="8"/>
<text class="title" x="76" y="1513">SOUTH elevation</text>
<line class="axis" x1="108.00" y1="1971.00" x2="186.08" y2="1971.00"/>
<line class="solid" x1="108.00" y1="1971.00" x2="186.08" y2="1971.00"/>
<polygon points="108.00,1971.00 108.00,1584.50 186.08,1584.50 186.08,1971.00" fill="#e8dfcb" stroke="#24353a" stroke-width="1.5"/>
<polygon points="108.00,1971.00 186.08,1971.00 186.08,1584.50 108.00,1584.50" fill="#d8c4a0" fill-opacity=".82"/>
<rect x="108.00" y="1556.00" width="78.08" height="28.50" fill="#d8c9ad" stroke="#8b7451"/>
<line x1="108.00" y1="1577.47" x2="186.08" y2="1577.47" stroke="#d4c39e" stroke-width="2"/>
<line x1="108.00" y1="1559.90" x2="186.08" y2="1559.90" stroke="#e2d1ad" stroke-width="2"/>
<line x1="108.00" y1="1556.00" x2="186.08" y2="1556.00" stroke="#8b7451" stroke-width="2"/>
<text class="parcel" x="147.04" y="1546.00" text-anchor="middle">P1</text>
<line x1="108.00" x2="186.08" y1="1842.17" y2="1842.17" stroke="#416779" stroke-width=".8" stroke-dasharray="7 5"/><text x="111.00" y="1838.17" font-size="10" fill="#234452">L1 +3.3 m</text>
<line x1="108.00" x2="186.08" y1="1713.33" y2="1713.33" stroke="#416779" stroke-width=".8" stroke-dasharray="7 5"/><text x="111.00" y="1709.33" font-size="10" fill="#234452">L2 +6.6 m</text>
<text class="tiny" x="108" y="2013">along 19..21 m · vertical absolute z</text>
<text class="label" x="1220" y="1543">PARCEL KEY</text>
<text class="tiny" x="1220" y="1569.00">P1 lwu-s</text>
<text class="tiny" x="1220" y="1583.00">slab 9.9..10.08</text>
<text class="tiny" x="1220" y="1597.00">parapet 10.53 · cap 10.63</text>
<path d="M 108.00 2021 V 2031 M 108.00 2026 H 147.04 M 147.04 2021 V 2031" stroke="#24353a" fill="none"/><text class="tiny" x="155.04" y="2030">1 m scale bar; horizontal = vertical</text>
<text class="tiny" x="1220" y="2001">Floor at span ends: +0 / +0 m</text>
<text class="label" x="76" y="2067">COMPLETE OPENING SCHEDULE · metres · axis is absolute plan coordinate; sill/head are absolute z</text>
<text class="tiny" x="76" y="2092">Key / stable opening ID</text>
<text class="tiny" x="458" y="2092">Storey / axis</text>
<text class="tiny" x="648" y="2092">Width / sill / head</text>
<text class="tiny" x="903" y="2092">Complete scheduled closure</text>
<text class="tiny" x="76" y="2116">No scheduled openings on this face.</text>
<rect class="panel" x="48" y="2149" width="1800" height="650" rx="8"/>
<text class="title" x="76" y="2191">WEST elevation</text>
<line class="axis" x1="108.00" y1="2649.00" x2="374.79" y2="2649.00"/>
<rect x="108.00" y="2636.00" width="266.79" height="13" fill="url(#zero-build)"/><text class="tiny" x="241.39" y="2676.00" text-anchor="middle">ZERO BUILD</text>
<text class="tiny" x="108" y="2691">along 72..76.5 m · vertical absolute z</text>
<text class="label" x="1220" y="2221">PARCEL KEY</text>
<path d="M 108.00 2699 V 2709 M 108.00 2704 H 167.29 M 167.29 2699 V 2709" stroke="#24353a" fill="none"/><text class="tiny" x="175.29" y="2708">1 m scale bar; horizontal = vertical</text>
<text class="tiny" x="1220" y="2679">Floor at span ends: +0 / +0 m</text>
<text class="label" x="76" y="2745">COMPLETE OPENING SCHEDULE · metres · axis is absolute plan coordinate; sill/head are absolute z</text>
<text class="tiny" x="76" y="2770">Key / stable opening ID</text>
<text class="tiny" x="458" y="2770">Storey / axis</text>
<text class="tiny" x="648" y="2770">Width / sill / head</text>
<text class="tiny" x="903" y="2770">Complete scheduled closure</text>
<text class="tiny" x="76" y="2794">No scheduled openings on this face.</text>
</svg>
