<?xml version="1.0" encoding="UTF-8"?>
<svg xmlns="http://www.w3.org/2000/svg" width="1900" height="1300" viewBox="0 0 1900 1300">
<style>text{font-family:Arial,sans-serif;fill:#24353a}.title{font-size:28px;font-weight:700}.sub{font-size:15px;fill:#52676a}.label{font-size:13px}.tiny{font-size:11px;fill:#52676a}.parcel{font-size:12px;font-weight:700}.opening{font-size:10px;font-weight:700}.panel{fill:#fbfaf5;stroke:#87959a;stroke-width:1.5}.axis{stroke:#52676a;stroke-width:1}.solid{stroke:#3c5157;stroke-width:5}.open{stroke:#c2534d;stroke-width:5;stroke-dasharray:8 5}</style>
<rect width="1900" height="1300" fill="#f5f1e8"/>
<defs><pattern id="zero-build" width="8" height="8" patternUnits="userSpaceOnUse" patternTransform="rotate(45)"><line x1="0" y1="0" x2="0" y2="8" stroke="#c2534d" stroke-width="2"/></pattern><marker id="camera-arrow" markerWidth="8" markerHeight="8" refX="7" refY="3" orient="auto"><path d="M0,0 L8,3 L0,6 Z" fill="#573d7a"/></marker></defs>
<text class="title" x="48" y="48">BZ-04 / R7 spawn b courtyard facade-centered upper openings · SPAWN_B_COURTYARD · East elevation</text>
<text class="sub" x="48" y="76">MEASURED FACADE DRAWING · actual floor contact, opening heads and scheduled closures · absolute design elevations</text>
<rect class="panel" x="48" y="115" width="1800" height="1145" rx="8"/>
<text class="title" x="76" y="157">EAST elevation</text>
<line class="axis" x1="108.00" y1="615.00" x2="639.56" y2="615.00"/>
<line class="solid" x1="221.91" y1="615.00" x2="639.56" y2="615.00"/>
<rect x="108.00" y="602.00" width="113.91" height="13" fill="url(#zero-build)"/><text class="tiny" x="164.95" y="642.00" text-anchor="middle">ZERO BUILD</text>
<polygon points="221.91,615.00 221.91,239.11 411.75,239.11 411.75,615.00" fill="#e8dfcb" stroke="#24353a" stroke-width="1.5"/>
<polygon points="221.91,615.00 411.75,615.00 411.75,603.61 221.91,603.61" fill="#bda985" fill-opacity=".82"/>
<polygon points="221.91,603.61 411.75,603.61 411.75,239.11 221.91,239.11" fill="#b6a185" fill-opacity=".82"/>
<rect x="221.91" y="211.39" width="189.84" height="27.72" fill="#d8c9ad" stroke="#8b7451"/>
<line x1="221.91" y1="232.27" x2="411.75" y2="232.27" stroke="#d4c39e" stroke-width="2"/>
<line x1="221.91" y1="215.19" x2="411.75" y2="215.19" stroke="#e2d1ad" stroke-width="2"/>
<line x1="221.91" y1="211.39" x2="411.75" y2="211.39" stroke="#8b7451" stroke-width="2"/>
<text class="parcel" x="316.83" y="201.39" text-anchor="middle">P1</text>
<defs><clipPath id="opening-clip-spawn_b_courtyard-east-1"><path d="M 282.66 615.00 L 282.66 526.27 Q 316.83 487.31 351.00 526.27 L 351.00 615.00 Z"/></clipPath></defs>
<defs><clipPath id="surround-B_E_STORE-DOOR"><rect x="276.58" y="500.71" width="80.49" height="114.29"/></clipPath></defs>
<g clip-path="url(#surround-B_E_STORE-DOOR)">
<path d="M 282.66 615.00 L 282.66 526.27 Q 316.83 487.31 351.00 526.27 L 351.00 615.00" fill="none" stroke="#cbb99b" stroke-width="12.15" stroke-linejoin="round"/>
</g>
<defs><clipPath id="b-clip-B_E_STORE-DOOR"><path d="M 282.66 615.00 L 282.66 526.27 Q 316.83 487.31 351.00 526.27 L 351.00 615.00 Z"/></clipPath></defs>
<path d="M 282.66 615.00 L 282.66 526.27 Q 316.83 487.31 351.00 526.27 L 351.00 615.00 Z" fill="#ddd6c4" stroke="#cbb99b" stroke-width="0.00"/>
<path d="M 282.66 615.00 L 282.66 526.27 Q 316.83 487.31 351.00 526.27 L 351.00 615.00 Z" fill="#9c8060" stroke="#4c514d" stroke-width="1.1"/>
<g clip-path="url(#b-clip-B_E_STORE-DOOR)">
<rect x="285.31" y="568.47" width="28.86" height="41.22" fill="none" stroke="#bfa988" stroke-width="1"/>
<rect x="285.31" y="512.86" width="28.86" height="49.11" fill="none" stroke="#bfa988" stroke-width="1"/>
<rect x="319.49" y="568.47" width="28.86" height="41.22" fill="none" stroke="#bfa988" stroke-width="1"/>
<rect x="319.49" y="512.86" width="28.86" height="49.11" fill="none" stroke="#bfa988" stroke-width="1"/>
</g>
<path d="M 282.66 615.00 L 282.66 526.27 Q 316.83 487.31 351.00 526.27 L 351.00 615.00 Z" fill="none" stroke="#4c514d" stroke-width="1.3"/>
<defs><clipPath id="relief-B_E_STORE-DOOR"><path d="M 282.66 615.00 L 282.66 526.27 Q 316.83 487.31 351.00 526.27 L 351.00 615.00 Z"/></clipPath></defs>
<g clip-path="url(#relief-B_E_STORE-DOOR)">
<path d="M 288.73 615.00 V 506.79" stroke="#b9a386" stroke-width=".6"/>
<path d="M 294.81 615.00 V 506.79" stroke="#b9a386" stroke-width=".6"/>
<path d="M 300.88 615.00 V 506.79" stroke="#b9a386" stroke-width=".6"/>
<path d="M 306.96 615.00 V 506.79" stroke="#b9a386" stroke-width=".6"/>
<path d="M 313.03 615.00 V 506.79" stroke="#b9a386" stroke-width=".6"/>
<path d="M 319.11 615.00 V 506.79" stroke="#b9a386" stroke-width=".6"/>
<path d="M 325.18 615.00 V 506.79" stroke="#b9a386" stroke-width=".6"/>
<path d="M 331.26 615.00 V 506.79" stroke="#b9a386" stroke-width=".6"/>
<path d="M 337.33 615.00 V 506.79" stroke="#b9a386" stroke-width=".6"/>
<path d="M 343.41 615.00 V 506.79" stroke="#b9a386" stroke-width=".6"/>
<path d="M 349.48 615.00 V 506.79" stroke="#b9a386" stroke-width=".6"/>
</g>
<line x1="316.83" y1="492.79" x2="316.83" y2="623.00" stroke="#496c7c" stroke-width=".7" stroke-dasharray="4 4"/>
<text x="316.83" y="501.79" text-anchor="middle" font-size="10" fill="#234452">O1.1</text>
<defs><clipPath id="b-clip-B_E_STORE-L2-B1"><path d="M 284.56 303.66 L 284.56 278.98 L 349.10 278.98 L 349.10 303.66 Z"/></clipPath></defs>
<path d="M 284.56 303.66 L 284.56 278.98 L 349.10 278.98 L 349.10 303.66 Z" fill="#ddd6c4" stroke="#cbb99b" stroke-width="3.80"/>
<path d="M 284.56 303.66 L 284.56 278.98 L 349.10 278.98 L 349.10 303.66 Z" fill="#9c8060" stroke="#4c514d" stroke-width="1.1"/>
<g clip-path="url(#b-clip-B_E_STORE-L2-B1)">
<path d="M 286.45 300.62 H 347.20" stroke="#bba786" stroke-width="1"/>
<path d="M 286.45 297.58 H 347.20" stroke="#bba786" stroke-width="1"/>
<path d="M 286.45 294.54 H 347.20" stroke="#bba786" stroke-width="1"/>
<path d="M 286.45 291.51 H 347.20" stroke="#bba786" stroke-width="1"/>
<path d="M 286.45 288.47 H 347.20" stroke="#bba786" stroke-width="1"/>
<path d="M 286.45 285.43 H 347.20" stroke="#bba786" stroke-width="1"/>
<path d="M 286.45 282.39 H 347.20" stroke="#bba786" stroke-width="1"/>
<path d="M 286.45 279.35 H 347.20" stroke="#bba786" stroke-width="1"/>
</g>
<path d="M 284.56 303.66 L 284.56 278.98 L 349.10 278.98 L 349.10 303.66 Z" fill="none" stroke="#4c514d" stroke-width="1.3"/>
<line x1="316.83" y1="264.98" x2="316.83" y2="311.66" stroke="#496c7c" stroke-width=".7" stroke-dasharray="4 4"/>
<text x="316.83" y="273.98" text-anchor="middle" font-size="10" fill="#234452">O1.2</text>
<defs><clipPath id="b-clip-B_E_STORE_LOADING"><path d="M 276.96 474.52 L 276.96 392.88 L 356.70 392.88 L 356.70 474.52 Z"/></clipPath></defs>
<path d="M 276.96 474.52 L 276.96 392.88 L 356.70 392.88 L 356.70 474.52 Z" fill="#ddd6c4" stroke="#cbb99b" stroke-width="3.80"/>
<path d="M 276.96 474.52 L 276.96 392.88 L 356.70 392.88 L 356.70 474.52 Z" fill="#9c8060" stroke="#4c514d" stroke-width="1.1"/>
<g clip-path="url(#b-clip-B_E_STORE_LOADING)">
<rect x="279.62" y="439.41" width="34.55" height="29.79" fill="none" stroke="#bfa988" stroke-width="1"/>
<rect x="279.62" y="398.96" width="34.55" height="35.56" fill="none" stroke="#bfa988" stroke-width="1"/>
<rect x="319.49" y="439.41" width="34.55" height="29.79" fill="none" stroke="#bfa988" stroke-width="1"/>
<rect x="319.49" y="398.96" width="34.55" height="35.56" fill="none" stroke="#bfa988" stroke-width="1"/>
</g>
<path d="M 276.96 474.52 L 276.96 392.88 L 356.70 392.88 L 356.70 474.52 Z" fill="none" stroke="#4c514d" stroke-width="1.3"/>
<line x1="316.83" y1="378.88" x2="316.83" y2="482.52" stroke="#496c7c" stroke-width=".7" stroke-dasharray="4 4"/>
<text x="316.83" y="387.88" text-anchor="middle" font-size="10" fill="#234452">O1.3</text>
<line x1="221.91" x2="411.75" y1="489.70" y2="489.70" stroke="#416779" stroke-width=".8" stroke-dasharray="7 5"/><text x="224.91" y="485.70" font-size="10" fill="#234452">L1 +3.3 m</text>
<line x1="221.91" x2="411.75" y1="364.41" y2="364.41" stroke="#416779" stroke-width=".8" stroke-dasharray="7 5"/><text x="224.91" y="360.41" font-size="10" fill="#234452">L2 +6.6 m</text>
<polygon points="411.75,615.00 411.75,227.72 639.56,227.72 639.56,615.00" fill="#e8dfcb" stroke="#24353a" stroke-width="1.5"/>
<polygon points="411.75,615.00 639.56,615.00 639.56,603.61 411.75,603.61" fill="#bda985" fill-opacity=".82"/>
<polygon points="411.75,603.61 639.56,603.61 639.56,227.72 411.75,227.72" fill="#ddd0b3" fill-opacity=".82"/>
<rect x="411.75" y="200.00" width="227.81" height="27.72" fill="#d8c9ad" stroke="#8b7451"/>
<line x1="411.75" y1="220.88" x2="639.56" y2="220.88" stroke="#d4c39e" stroke-width="2"/>
<line x1="411.75" y1="203.80" x2="639.56" y2="203.80" stroke="#e2d1ad" stroke-width="2"/>
<line x1="411.75" y1="200.00" x2="639.56" y2="200.00" stroke="#8b7451" stroke-width="2"/>
<text class="parcel" x="525.66" y="190.00" text-anchor="middle">P2</text>
<defs><clipPath id="b-clip-B_E_PACK_DOOR"><path d="M 446.87 615.00 L 446.87 518.18 L 490.54 518.18 L 490.54 615.00 Z"/></clipPath></defs>
<path d="M 446.87 615.00 L 446.87 518.18 L 490.54 518.18 L 490.54 615.00 Z" fill="#ddd6c4" stroke="#e4d7bf" stroke-width="3.80"/>
<path d="M 446.87 615.00 L 446.87 518.18 L 490.54 518.18 L 490.54 615.00 Z" fill="#9c8060" stroke="#4c514d" stroke-width="1.1"/>
<g clip-path="url(#b-clip-B_E_PACK_DOOR)">
<rect x="449.53" y="573.37" width="16.52" height="36.32" fill="none" stroke="#bfa988" stroke-width="1"/>
<rect x="449.53" y="524.25" width="16.52" height="43.30" fill="none" stroke="#bfa988" stroke-width="1"/>
<rect x="471.36" y="573.37" width="16.52" height="36.32" fill="none" stroke="#bfa988" stroke-width="1"/>
<rect x="471.36" y="524.25" width="16.52" height="43.30" fill="none" stroke="#bfa988" stroke-width="1"/>
<rect x="449.91" y="589.47" width="0.95" height="2.66" fill="#56534b"/>
<rect x="449.91" y="541.06" width="0.95" height="2.66" fill="#56534b"/>
<rect x="486.55" y="589.47" width="0.95" height="2.66" fill="#56534b"/>
<rect x="486.55" y="541.06" width="0.95" height="2.66" fill="#56534b"/>
</g>
<path d="M 446.87 615.00 L 446.87 518.18 L 490.54 518.18 L 490.54 615.00 Z" fill="none" stroke="#4c514d" stroke-width="1.3"/>
<line x1="468.70" y1="504.18" x2="468.70" y2="623.00" stroke="#496c7c" stroke-width=".7" stroke-dasharray="4 4"/>
<text x="468.70" y="513.18" text-anchor="middle" font-size="10" fill="#234452">O2.4</text>
<defs><clipPath id="b-clip-B_E_PACK_SHOP"><path d="M 529.45 615.00 L 529.45 510.59 L 612.99 510.59 L 612.99 615.00 Z"/></clipPath></defs>
<path d="M 529.45 615.00 L 529.45 510.59 L 612.99 510.59 L 612.99 615.00 Z" fill="#ddd6c4" stroke="#e4d7bf" stroke-width="3.80"/>
<path d="M 529.45 615.00 L 529.45 510.59 L 612.99 510.59 L 612.99 615.00 Z" fill="#9c8060" stroke="#4c514d" stroke-width="1.1"/>
<g clip-path="url(#b-clip-B_E_PACK_SHOP)">
</g>
<path d="M 529.45 615.00 L 529.45 510.59 L 612.99 510.59 L 612.99 615.00 Z" fill="none" stroke="#4c514d" stroke-width="1.3"/>
<line x1="571.22" y1="496.59" x2="571.22" y2="623.00" stroke="#496c7c" stroke-width=".7" stroke-dasharray="4 4"/>
<text x="571.22" y="505.59" text-anchor="middle" font-size="10" fill="#234452">O2.5</text>
<defs><clipPath id="b-clip-B_E_PACKER-L1-B1"><path d="M 453.52 461.23 L 453.52 394.78 L 483.89 394.78 L 483.89 461.23 Z"/></clipPath></defs>
<path d="M 453.52 461.23 L 453.52 394.78 L 483.89 394.78 L 483.89 461.23 Z" fill="#ddd6c4" stroke="#e4d7bf" stroke-width="3.80"/>
<path d="M 453.52 461.23 L 453.52 394.78 L 483.89 394.78 L 483.89 461.23 Z" fill="#9c8060" stroke="#4c514d" stroke-width="1.1"/>
<g clip-path="url(#b-clip-B_E_PACKER-L1-B1)">
<rect x="456.17" y="432.65" width="25.06" height="23.26" fill="none" stroke="#bfa988" stroke-width="1"/>
<rect x="456.17" y="400.86" width="25.06" height="27.81" fill="none" stroke="#bfa988" stroke-width="1"/>
<rect x="456.55" y="443.29" width="0.95" height="2.66" fill="#56534b"/>
<rect x="456.55" y="410.06" width="0.95" height="2.66" fill="#56534b"/>
<rect x="479.91" y="443.29" width="0.95" height="2.66" fill="#56534b"/>
<rect x="479.91" y="410.06" width="0.95" height="2.66" fill="#56534b"/>
</g>
<path d="M 453.52 461.23 L 453.52 394.78 L 483.89 394.78 L 483.89 461.23 Z" fill="none" stroke="#4c514d" stroke-width="1.3"/>
<line x1="468.70" y1="380.78" x2="468.70" y2="469.23" stroke="#496c7c" stroke-width=".7" stroke-dasharray="4 4"/>
<text x="468.70" y="389.78" text-anchor="middle" font-size="10" fill="#234452">O2.6</text>
<defs><clipPath id="b-clip-B_E_PACKER-L1-B2"><path d="M 545.59 461.23 L 545.59 394.78 L 596.85 394.78 L 596.85 461.23 Z"/></clipPath></defs>
<path d="M 545.59 461.23 L 545.59 394.78 L 596.85 394.78 L 596.85 461.23 Z" fill="#ddd6c4" stroke="#e4d7bf" stroke-width="3.80"/>
<path d="M 545.59 461.23 L 545.59 394.78 L 596.85 394.78 L 596.85 461.23 Z" fill="#9c8060" stroke="#4c514d" stroke-width="1.1"/>
<g clip-path="url(#b-clip-B_E_PACKER-L1-B2)">
<rect x="548.25" y="432.65" width="20.31" height="23.26" fill="none" stroke="#bfa988" stroke-width="1"/>
<rect x="548.25" y="400.86" width="20.31" height="27.81" fill="none" stroke="#bfa988" stroke-width="1"/>
<rect x="573.88" y="432.65" width="20.31" height="23.26" fill="none" stroke="#bfa988" stroke-width="1"/>
<rect x="573.88" y="400.86" width="20.31" height="27.81" fill="none" stroke="#bfa988" stroke-width="1"/>
<rect x="548.63" y="443.29" width="0.95" height="2.66" fill="#56534b"/>
<rect x="548.63" y="410.06" width="0.95" height="2.66" fill="#56534b"/>
<rect x="592.86" y="443.29" width="0.95" height="2.66" fill="#56534b"/>
<rect x="592.86" y="410.06" width="0.95" height="2.66" fill="#56534b"/>
</g>
<path d="M 545.59 461.23 L 545.59 394.78 L 596.85 394.78 L 596.85 461.23 Z" fill="none" stroke="#4c514d" stroke-width="1.3"/>
<line x1="571.22" y1="380.78" x2="571.22" y2="469.23" stroke="#496c7c" stroke-width=".7" stroke-dasharray="4 4"/>
<text x="571.22" y="389.78" text-anchor="middle" font-size="10" fill="#234452">O2.7</text>
<defs><clipPath id="b-clip-B_E_PACKER-L2-B1"><path d="M 453.52 335.93 L 453.52 269.48 L 483.89 269.48 L 483.89 335.93 Z"/></clipPath></defs>
<path d="M 453.52 335.93 L 453.52 269.48 L 483.89 269.48 L 483.89 335.93 Z" fill="#ddd6c4" stroke="#e4d7bf" stroke-width="3.80"/>
<path d="M 453.52 335.93 L 453.52 269.48 L 483.89 269.48 L 483.89 335.93 Z" fill="#9c8060" stroke="#4c514d" stroke-width="1.1"/>
<g clip-path="url(#b-clip-B_E_PACKER-L2-B1)">
<rect x="456.17" y="307.36" width="25.06" height="23.26" fill="none" stroke="#bfa988" stroke-width="1"/>
<rect x="456.17" y="275.56" width="25.06" height="27.81" fill="none" stroke="#bfa988" stroke-width="1"/>
<rect x="456.55" y="317.99" width="0.95" height="2.66" fill="#56534b"/>
<rect x="456.55" y="284.77" width="0.95" height="2.66" fill="#56534b"/>
<rect x="479.91" y="317.99" width="0.95" height="2.66" fill="#56534b"/>
<rect x="479.91" y="284.77" width="0.95" height="2.66" fill="#56534b"/>
</g>
<path d="M 453.52 335.93 L 453.52 269.48 L 483.89 269.48 L 483.89 335.93 Z" fill="none" stroke="#4c514d" stroke-width="1.3"/>
<line x1="468.70" y1="255.48" x2="468.70" y2="343.93" stroke="#496c7c" stroke-width=".7" stroke-dasharray="4 4"/>
<text x="468.70" y="264.48" text-anchor="middle" font-size="10" fill="#234452">O2.8</text>
<defs><clipPath id="b-clip-B_E_PACKER-L2-B2"><path d="M 545.59 335.93 L 545.59 269.48 L 596.85 269.48 L 596.85 335.93 Z"/></clipPath></defs>
<path d="M 545.59 335.93 L 545.59 269.48 L 596.85 269.48 L 596.85 335.93 Z" fill="#ddd6c4" stroke="#e4d7bf" stroke-width="3.80"/>
<path d="M 545.59 335.93 L 545.59 269.48 L 596.85 269.48 L 596.85 335.93 Z" fill="#9c8060" stroke="#4c514d" stroke-width="1.1"/>
<g clip-path="url(#b-clip-B_E_PACKER-L2-B2)">
<rect x="548.25" y="307.36" width="20.31" height="23.26" fill="none" stroke="#bfa988" stroke-width="1"/>
<rect x="548.25" y="275.56" width="20.31" height="27.81" fill="none" stroke="#bfa988" stroke-width="1"/>
<rect x="573.88" y="307.36" width="20.31" height="23.26" fill="none" stroke="#bfa988" stroke-width="1"/>
<rect x="573.88" y="275.56" width="20.31" height="27.81" fill="none" stroke="#bfa988" stroke-width="1"/>
<rect x="548.63" y="317.99" width="0.95" height="2.66" fill="#56534b"/>
<rect x="548.63" y="284.77" width="0.95" height="2.66" fill="#56534b"/>
<rect x="592.86" y="317.99" width="0.95" height="2.66" fill="#56534b"/>
<rect x="592.86" y="284.77" width="0.95" height="2.66" fill="#56534b"/>
</g>
<path d="M 545.59 335.93 L 545.59 269.48 L 596.85 269.48 L 596.85 335.93 Z" fill="none" stroke="#4c514d" stroke-width="1.3"/>
<line x1="571.22" y1="255.48" x2="571.22" y2="343.93" stroke="#496c7c" stroke-width=".7" stroke-dasharray="4 4"/>
<text x="571.22" y="264.48" text-anchor="middle" font-size="10" fill="#234452">O2.9</text>
<line x1="411.75" x2="639.56" y1="489.70" y2="489.70" stroke="#416779" stroke-width=".8" stroke-dasharray="7 5"/><text x="414.75" y="485.70" font-size="10" fill="#234452">L1 +3.3 m</text>
<line x1="411.75" x2="639.56" y1="364.41" y2="364.41" stroke="#416779" stroke-width=".8" stroke-dasharray="7 5"/><text x="414.75" y="360.41" font-size="10" fill="#234452">L2 +6.6 m</text>
<rect x="531.35" y="579.31" width="79.73" height="34.17" fill="#dfc9a9" stroke="#675c4b" stroke-width=".7"/>
<rect x="540.66" y="564.88" width="24.68" height="14.43" fill="#dfcfab" stroke="#675c4b" stroke-width=".7"/>
<rect x="571.22" y="567.92" width="22.78" height="11.39" fill="#dfcfab" stroke="#675c4b" stroke-width=".7"/>
<rect x="546.54" y="552.73" width="26.58" height="12.15" fill="#dfcfab" stroke="#675c4b" stroke-width=".7"/>
<text class="tiny" x="571.22" y="592.60" text-anchor="middle">G4</text>
<rect x="313.41" y="378.07" width="6.83" height="11.39" fill="#9c8060" stroke="#66594a" stroke-width="1"/>
<text class="tiny" x="108" y="657">along 78..92 m · vertical absolute z</text>
<text class="label" x="1220" y="187">PARCEL KEY</text>
<text class="tiny" x="1220" y="213.00">P1 B_E_STORE</text>
<text class="tiny" x="1220" y="227.00">slab 9.9..10.08</text>
<text class="tiny" x="1220" y="241.00">parapet 10.53 · cap 10.63</text>
<text class="tiny" x="1220" y="263.00">P2 B_E_PACKER</text>
<text class="tiny" x="1220" y="277.00">slab 10.2..10.38</text>
<text class="tiny" x="1220" y="291.00">parapet 10.83 · cap 10.93</text>
<path d="M 108.00 665 V 675 M 108.00 670 H 221.91 M 221.91 665 V 675" stroke="#24353a" fill="none"/><text class="tiny" x="229.91" y="674">3 m scale bar; horizontal = vertical</text>
<text class="tiny" x="1220" y="645">Floor at span ends: +0 / +0 m</text>
<text class="label" x="76" y="711">COMPLETE OPENING SCHEDULE · metres · axis is absolute plan coordinate; sill/head are absolute z</text>
<text class="tiny" x="76" y="736">Key / stable opening ID</text>
<text class="tiny" x="458" y="736">Storey / axis</text>
<text class="tiny" x="648" y="736">Width / sill / head</text>
<text class="tiny" x="903" y="736">Complete scheduled closure</text>
<path d="M 76 745 H 1820" stroke="#d2d8d5"/>
<text class="tiny" x="76" y="760">O1.1</text><text font-size="12" x="76" y="777">B_E_STORE-DOOR</text>
<text class="tiny" x="458" y="760">L0 / 83.5</text>
<text class="tiny" x="648" y="760">1.8 / 0 / 2.85</text>
<text class="tiny" x="903" y="760">closed double timber leaves</text>
<path d="M 76 800 H 1820" stroke="#d2d8d5"/>
<text class="tiny" x="76" y="815">O1.2</text><text font-size="12" x="76" y="832">B_E_STORE-L2-B1</text>
<text class="tiny" x="458" y="815">L2 / 83.5</text>
<text class="tiny" x="648" y="815">1.7 / 8.2 / 8.85</text>
<text class="tiny" x="903" y="815">closed timber louver</text>
<path d="M 76 855 H 1820" stroke="#d2d8d5"/>
<text class="tiny" x="76" y="870">O1.3</text><text font-size="12" x="76" y="887">B_E_STORE_LOADING</text>
<text class="tiny" x="458" y="870">L1 / 83.5</text>
<text class="tiny" x="648" y="870">2.1 / 3.7 / 5.85</text>
<text class="tiny" x="903" y="870">closed double paneled timber loading leaves</text>
<path d="M 76 910 H 1820" stroke="#d2d8d5"/>
<text class="tiny" x="76" y="925">O2.4</text><text font-size="12" x="76" y="942">B_E_PACK_DOOR</text>
<text class="tiny" x="458" y="925">L0 / 87.5</text>
<text class="tiny" x="648" y="925">1.15 / 0 / 2.55</text>
<text class="tiny" x="903" y="925">closed double timber leaves</text>
<path d="M 76 965 H 1820" stroke="#d2d8d5"/>
<text class="tiny" x="76" y="980">O2.5</text><text font-size="12" x="76" y="997">B_E_PACK_SHOP</text>
<text class="tiny" x="458" y="980">L0 / 90.2</text>
<text class="tiny" x="648" y="980">2.2 / 0 / 2.75</text>
<text class="tiny" x="903" y="980">closed shop back and fixed counter</text>
<path d="M 76 1020 H 1820" stroke="#d2d8d5"/>
<text class="tiny" x="76" y="1035">O2.6</text><text font-size="12" x="76" y="1052">B_E_PACKER-L1-B1</text>
<text class="tiny" x="458" y="1035">L1 / 87.5</text>
<text class="tiny" x="648" y="1035">0.8 / 4.05 / 5.8</text>
<text class="tiny" x="903" y="1035">Closed 1-panel timber shutters</text>
<path d="M 76 1075 H 1820" stroke="#d2d8d5"/>
<text class="tiny" x="76" y="1090">O2.7</text><text font-size="12" x="76" y="1107">B_E_PACKER-L1-B2</text>
<text class="tiny" x="458" y="1090">L1 / 90.2</text>
<text class="tiny" x="648" y="1090">1.35 / 4.05 / 5.8</text>
<text class="tiny" x="903" y="1090">closed double paneled timber shutters</text>
<path d="M 76 1130 H 1820" stroke="#d2d8d5"/>
<text class="tiny" x="76" y="1145">O2.8</text><text font-size="12" x="76" y="1162">B_E_PACKER-L2-B1</text>
<text class="tiny" x="458" y="1145">L2 / 87.5</text>
<text class="tiny" x="648" y="1145">0.8 / 7.35 / 9.1</text>
<text class="tiny" x="903" y="1145">Closed 1-panel timber shutters</text>
<path d="M 76 1185 H 1820" stroke="#d2d8d5"/>
<text class="tiny" x="76" y="1200">O2.9</text><text font-size="12" x="76" y="1217">B_E_PACKER-L2-B2</text>
<text class="tiny" x="458" y="1200">L2 / 90.2</text>
<text class="tiny" x="648" y="1200">1.35 / 7.35 / 9.1</text>
<text class="tiny" x="903" y="1200">closed double paneled timber shutters</text>
</svg>
