<svg xmlns="http://www.w3.org/2000/svg" width="580" height="940" viewBox="0 0 580 940">
<rect x="0" y="0" width="580" height="940" fill="#0b1220"/>
<rect x="40" y="40" width="500" height="820" fill="none" stroke="#eab308" stroke-width="3"/>
<text x="290" y="24" fill="#ffffff" font-size="18" font-family="Arial" font-weight="bold" text-anchor="middle">Bazaar Map Layout Reference</text>
<text x="290" y="44" fill="#9ca3af" font-size="12" font-family="Arial" text-anchor="middle">Generated from docs/map-design/specs/map_spec.json. North is up. Codes map to the legend in the Markdown catalog.</text>
<g id="AREA_SPAWN_A">
<rect x="180.0" y="720.0" width="220.0" height="140.0" rx="6" ry="6" fill="#243b53" stroke="#7fb3d5" stroke-width="2"/>
</g>
<g id="AREA_SPAWN_A-label">
<text x="290.0" y="790.0" fill="#ffffff" font-size="13" font-family="Arial" font-weight="bold" text-anchor="middle">SA</text>
</g>
<g id="AREA_SPAWN_B">
<rect x="180.0" y="40.0" width="220.0" height="140.0" rx="6" ry="6" fill="#243b53" stroke="#7fb3d5" stroke-width="2"/>
</g>
<g id="AREA_SPAWN_B-label">
<text x="290.0" y="110.0" fill="#ffffff" font-size="13" font-family="Arial" font-weight="bold" text-anchor="middle">SB</text>
</g>
<g id="AREA_MAIN_HALL_SOUTH">
<rect x="242.5" y="540.0" width="95.0" height="180.0" rx="6" ry="6" fill="#2f2f46" stroke="#d6d7dc" stroke-width="2"/>
</g>
<g id="AREA_MAIN_HALL_SOUTH-label">
<text x="290.0" y="630.0" fill="#ffffff" font-size="13" font-family="Arial" font-weight="bold" text-anchor="middle">MHS</text>
</g>
<g id="AREA_MAIN_HALL_JOG">
<rect x="267.5" y="360.0" width="85.0" height="180.0" rx="6" ry="6" fill="#2f2f46" stroke="#d6d7dc" stroke-width="2"/>
</g>
<g id="AREA_MAIN_HALL_JOG-label">
<text x="310.0" y="450.0" fill="#ffffff" font-size="13" font-family="Arial" font-weight="bold" text-anchor="middle">MHJ</text>
</g>
<g id="AREA_MAIN_HALL_NORTH">
<rect x="242.5" y="180.0" width="95.0" height="180.0" rx="6" ry="6" fill="#2f2f46" stroke="#d6d7dc" stroke-width="2"/>
</g>
<g id="AREA_MAIN_HALL_NORTH-label">
<text x="290.0" y="270.0" fill="#ffffff" font-size="13" font-family="Arial" font-weight="bold" text-anchor="middle">MHN</text>
</g>
<g id="AREA_SIDE_HALL_A">
<rect x="55.0" y="140.0" width="65.0" height="620.0" rx="6" ry="6" fill="#1f2937" stroke="#cbd5e1" stroke-width="2"/>
</g>
<g id="AREA_SIDE_HALL_A-label">
<text x="87.5" y="450.0" fill="#ffffff" font-size="13" font-family="Arial" font-weight="bold" text-anchor="middle">SHA</text>
</g>
<g id="AREA_SIDE_HALL_B">
<rect x="460.0" y="140.0" width="65.0" height="620.0" rx="6" ry="6" fill="#1f2937" stroke="#cbd5e1" stroke-width="2"/>
</g>
<g id="AREA_SIDE_HALL_B-label">
<text x="492.5" y="450.0" fill="#ffffff" font-size="13" font-family="Arial" font-weight="bold" text-anchor="middle">SHB</text>
</g>
<g id="AREA_CONNECTOR_A">
<rect x="120.0" y="740.0" width="60.0" height="40.0" rx="6" ry="6" fill="#281a13" stroke="#fb923c" stroke-width="2"/>
</g>
<g id="AREA_CONNECTOR_A-label">
<text x="150.0" y="760.0" fill="#ffffff" font-size="11" font-family="Arial" font-weight="bold" text-anchor="middle">CNA</text>
</g>
<g id="AREA_CONNECTOR_B">
<rect x="400.0" y="740.0" width="60.0" height="40.0" rx="6" ry="6" fill="#281a13" stroke="#fb923c" stroke-width="2"/>
</g>
<g id="AREA_CONNECTOR_B-label">
<text x="430.0" y="760.0" fill="#ffffff" font-size="11" font-family="Arial" font-weight="bold" text-anchor="middle">CNB</text>
</g>
<g id="AREA_CONNECTOR_C">
<rect x="120.0" y="120.0" width="60.0" height="40.0" rx="6" ry="6" fill="#281a13" stroke="#fb923c" stroke-width="2"/>
</g>
<g id="AREA_CONNECTOR_C-label">
<text x="150.0" y="140.0" fill="#ffffff" font-size="11" font-family="Arial" font-weight="bold" text-anchor="middle">CNC</text>
</g>
<g id="AREA_CONNECTOR_D">
<rect x="400.0" y="120.0" width="60.0" height="40.0" rx="6" ry="6" fill="#281a13" stroke="#fb923c" stroke-width="2"/>
</g>
<g id="AREA_CONNECTOR_D-label">
<text x="430.0" y="140.0" fill="#ffffff" font-size="11" font-family="Arial" font-weight="bold" text-anchor="middle">CND</text>
</g>
<g id="AREA_MID_CUT_A">
<rect x="120.0" y="585.0" width="122.5" height="30.0" rx="6" ry="6" fill="#2d1836" stroke="#f472b6" stroke-width="2"/>
</g>
<g id="AREA_MID_CUT_A-label">
<text x="181.3" y="600.0" fill="#ffffff" font-size="11" font-family="Arial" font-weight="bold" text-anchor="middle">MCA</text>
</g>
<g id="AREA_MID_CUT_B">
<rect x="337.5" y="585.0" width="122.5" height="30.0" rx="6" ry="6" fill="#2d1836" stroke="#f472b6" stroke-width="2"/>
</g>
<g id="AREA_MID_CUT_B-label">
<text x="398.8" y="600.0" fill="#ffffff" font-size="11" font-family="Arial" font-weight="bold" text-anchor="middle">MCB</text>
</g>
<g id="AREA_NORTH_CUT_A">
<rect x="120.0" y="270.0" width="122.5" height="30.0" rx="6" ry="6" fill="#2d1836" stroke="#f472b6" stroke-width="2"/>
</g>
<g id="AREA_NORTH_CUT_A-label">
<text x="181.3" y="285.0" fill="#ffffff" font-size="11" font-family="Arial" font-weight="bold" text-anchor="middle">NCA</text>
</g>
<g id="AREA_NORTH_CUT_B">
<rect x="337.5" y="270.0" width="122.5" height="30.0" rx="6" ry="6" fill="#2d1836" stroke="#f472b6" stroke-width="2"/>
</g>
<g id="AREA_NORTH_CUT_B-label">
<text x="398.8" y="285.0" fill="#ffffff" font-size="11" font-family="Arial" font-weight="bold" text-anchor="middle">NCB</text>
</g>
<g id="AREA_CLEAR_SOUTH">
<rect x="260.0" y="540.0" width="60.0" height="180.0" rx="6" ry="6" fill="none" stroke="#22c55e" stroke-width="2" stroke-dasharray="6,4"/>
</g>
<g id="AREA_CLEAR_SOUTH-label">
<text x="290.0" y="630.0" fill="#ffffff" font-size="13" font-family="Arial" font-weight="bold" text-anchor="middle">CLS</text>
</g>
<g id="AREA_CLEAR_JOG">
<rect x="280.0" y="360.0" width="60.0" height="180.0" rx="6" ry="6" fill="none" stroke="#22c55e" stroke-width="2" stroke-dasharray="6,4"/>
</g>
<g id="AREA_CLEAR_JOG-label">
<text x="310.0" y="450.0" fill="#ffffff" font-size="13" font-family="Arial" font-weight="bold" text-anchor="middle">CLJ</text>
</g>
<g id="AREA_CLEAR_NORTH">
<rect x="260.0" y="180.0" width="60.0" height="180.0" rx="6" ry="6" fill="none" stroke="#22c55e" stroke-width="2" stroke-dasharray="6,4"/>
</g>
<g id="AREA_CLEAR_NORTH-label">
<text x="290.0" y="270.0" fill="#ffffff" font-size="13" font-family="Arial" font-weight="bold" text-anchor="middle">CLN</text>
</g>
<g id="AREA_STALL_SOUTH_A">
<rect x="242.5" y="540.0" width="17.5" height="180.0" rx="6" ry="6" fill="#3b2d1b" stroke="#fbbf24" stroke-width="2"/>
</g>
<g id="AREA_STALL_SOUTH_A-label">
<text x="251.3" y="630.0" fill="#ffffff" font-size="13" font-family="Arial" font-weight="bold" text-anchor="middle">SSA</text>
</g>
<g id="AREA_STALL_SOUTH_B">
<rect x="320.0" y="540.0" width="17.5" height="180.0" rx="6" ry="6" fill="#3b2d1b" stroke="#fbbf24" stroke-width="2"/>
</g>
<g id="AREA_STALL_SOUTH_B-label">
<text x="328.8" y="630.0" fill="#ffffff" font-size="13" font-family="Arial" font-weight="bold" text-anchor="middle">SSB</text>
</g>
<g id="AREA_STALL_JOG_A">
<rect x="267.5" y="360.0" width="12.5" height="180.0" rx="6" ry="6" fill="#3b2d1b" stroke="#fbbf24" stroke-width="2"/>
</g>
<g id="AREA_STALL_JOG_A-label">
<text x="273.8" y="450.0" fill="#ffffff" font-size="13" font-family="Arial" font-weight="bold" text-anchor="middle">SJA</text>
</g>
<g id="AREA_STALL_JOG_B">
<rect x="340.0" y="360.0" width="12.5" height="180.0" rx="6" ry="6" fill="#3b2d1b" stroke="#fbbf24" stroke-width="2"/>
</g>
<g id="AREA_STALL_JOG_B-label">
<text x="346.3" y="450.0" fill="#ffffff" font-size="13" font-family="Arial" font-weight="bold" text-anchor="middle">SJB</text>
</g>
<g id="AREA_STALL_NORTH_A">
<rect x="242.5" y="180.0" width="17.5" height="180.0" rx="6" ry="6" fill="#3b2d1b" stroke="#fbbf24" stroke-width="2"/>
</g>
<g id="AREA_STALL_NORTH_A-label">
<text x="251.3" y="270.0" fill="#ffffff" font-size="13" font-family="Arial" font-weight="bold" text-anchor="middle">SNA</text>
</g>
<g id="AREA_STALL_NORTH_B">
<rect x="320.0" y="180.0" width="17.5" height="180.0" rx="6" ry="6" fill="#3b2d1b" stroke="#fbbf24" stroke-width="2"/>
</g>
<g id="AREA_STALL_NORTH_B-label">
<text x="328.8" y="270.0" fill="#ffffff" font-size="13" font-family="Arial" font-weight="bold" text-anchor="middle">SNB</text>
</g>
<g id="WALL_BLDG_G_FRONT">
<line x1="180.0" y1="720.0" x2="242.5" y2="720.0" stroke="#38bdf8" stroke-width="4"/>
<line x1="337.5" y1="720.0" x2="400.0" y2="720.0" stroke="#38bdf8" stroke-width="4"/>
<text x="290.0" y="711.0" fill="#f8fafc" font-size="11" font-family="Arial" font-weight="bold" text-anchor="middle">G-F</text>
</g>
<g id="WALL_AREA_SPAWN_A_SOUTH">
<line x1="180.0" y1="860.0" x2="400.0" y2="860.0" stroke="#fca5a5" stroke-width="4"/>
<text x="290.0" y="869.0" fill="#f8fafc" font-size="11" font-family="Arial" font-weight="bold" text-anchor="middle">SA-S</text>
</g>
<g id="WALL_AREA_SPAWN_A_EAST">
<line x1="400.0" y1="860.0" x2="400.0" y2="780.0" stroke="#fca5a5" stroke-width="4"/>
<line x1="400.0" y1="740.0" x2="400.0" y2="720.0" stroke="#fca5a5" stroke-width="4"/>
<text x="408.0" y="802.0" fill="#f8fafc" font-size="11" font-family="Arial" font-weight="bold" text-anchor="middle" transform="rotate(90 408.0 802.0)">SA-E</text>
</g>
<g id="WALL_AREA_SPAWN_A_WEST">
<line x1="180.0" y1="860.0" x2="180.0" y2="780.0" stroke="#fca5a5" stroke-width="4"/>
<line x1="180.0" y1="740.0" x2="180.0" y2="720.0" stroke="#fca5a5" stroke-width="4"/>
<text x="172.0" y="802.0" fill="#f8fafc" font-size="11" font-family="Arial" font-weight="bold" text-anchor="middle" transform="rotate(-90 172.0 802.0)">SA-W</text>
</g>
<g id="WALL_AREA_SPAWN_B_NORTH">
<line x1="180.0" y1="40.0" x2="400.0" y2="40.0" stroke="#fca5a5" stroke-width="4"/>
<text x="290.0" y="31.0" fill="#f8fafc" font-size="11" font-family="Arial" font-weight="bold" text-anchor="middle">SB-N</text>
</g>
<g id="WALL_BLDG_H_FRONT">
<line x1="180.0" y1="180.0" x2="242.5" y2="180.0" stroke="#38bdf8" stroke-width="4"/>
<line x1="337.5" y1="180.0" x2="400.0" y2="180.0" stroke="#38bdf8" stroke-width="4"/>
<text x="290.0" y="189.0" fill="#f8fafc" font-size="11" font-family="Arial" font-weight="bold" text-anchor="middle">H-F</text>
</g>
<g id="WALL_AREA_SPAWN_B_EAST">
<line x1="400.0" y1="180.0" x2="400.0" y2="160.0" stroke="#fca5a5" stroke-width="4"/>
<line x1="400.0" y1="120.0" x2="400.0" y2="40.0" stroke="#fca5a5" stroke-width="4"/>
<text x="408.0" y="98.0" fill="#f8fafc" font-size="11" font-family="Arial" font-weight="bold" text-anchor="middle" transform="rotate(90 408.0 98.0)">SB-E</text>
</g>
<g id="WALL_AREA_SPAWN_B_WEST">
<line x1="180.0" y1="180.0" x2="180.0" y2="160.0" stroke="#fca5a5" stroke-width="4"/>
<line x1="180.0" y1="120.0" x2="180.0" y2="40.0" stroke="#fca5a5" stroke-width="4"/>
<text x="172.0" y="98.0" fill="#f8fafc" font-size="11" font-family="Arial" font-weight="bold" text-anchor="middle" transform="rotate(-90 172.0 98.0)">SB-W</text>
</g>
<g id="WALL_AREA_MAIN_HALL_SOUTH_NORTH">
<line x1="242.5" y1="540.0" x2="267.5" y2="540.0" stroke="#fca5a5" stroke-width="4"/>
<text x="255.0" y="531.0" fill="#f8fafc" font-size="11" font-family="Arial" font-weight="bold" text-anchor="middle">MHS-N</text>
</g>
<g id="WALL_BLDG_B_FRONT">
<line x1="337.5" y1="720.0" x2="337.5" y2="615.0" stroke="#38bdf8" stroke-width="4"/>
<line x1="337.5" y1="585.0" x2="337.5" y2="540.0" stroke="#38bdf8" stroke-width="4"/>
<text x="345.5" y="636.0" fill="#f8fafc" font-size="11" font-family="Arial" font-weight="bold" text-anchor="middle" transform="rotate(90 345.5 636.0)">B-F</text>
</g>
<g id="WALL_BLDG_A_FRONT">
<line x1="242.5" y1="720.0" x2="242.5" y2="615.0" stroke="#38bdf8" stroke-width="4"/>
<line x1="242.5" y1="585.0" x2="242.5" y2="540.0" stroke="#38bdf8" stroke-width="4"/>
<text x="234.5" y="636.0" fill="#f8fafc" font-size="11" font-family="Arial" font-weight="bold" text-anchor="middle" transform="rotate(-90 234.5 636.0)">A-F</text>
</g>
<g id="WALL_AREA_MAIN_HALL_JOG_NORTH">
<line x1="337.5" y1="360.0" x2="352.5" y2="360.0" stroke="#fca5a5" stroke-width="4"/>
<text x="345.0" y="351.0" fill="#f8fafc" font-size="11" font-family="Arial" font-weight="bold" text-anchor="middle">MHJ-N</text>
</g>
<g id="WALL_AREA_MAIN_HALL_JOG_SOUTH">
<line x1="337.5" y1="540.0" x2="352.5" y2="540.0" stroke="#fca5a5" stroke-width="4"/>
<text x="345.0" y="549.0" fill="#f8fafc" font-size="11" font-family="Arial" font-weight="bold" text-anchor="middle">MHJ-S</text>
</g>
<g id="WALL_BLDG_D_FRONT">
<line x1="352.5" y1="540.0" x2="352.5" y2="360.0" stroke="#38bdf8" stroke-width="4"/>
<text x="360.5" y="450.0" fill="#f8fafc" font-size="11" font-family="Arial" font-weight="bold" text-anchor="middle" transform="rotate(90 360.5 450.0)">D-F</text>
</g>
<g id="WALL_BLDG_C_FRONT">
<line x1="267.5" y1="540.0" x2="267.5" y2="360.0" stroke="#38bdf8" stroke-width="4"/>
<text x="259.5" y="450.0" fill="#f8fafc" font-size="11" font-family="Arial" font-weight="bold" text-anchor="middle" transform="rotate(-90 259.5 450.0)">C-F</text>
</g>
<g id="WALL_AREA_MAIN_HALL_NORTH_SOUTH">
<line x1="242.5" y1="360.0" x2="267.5" y2="360.0" stroke="#fca5a5" stroke-width="4"/>
<text x="255.0" y="369.0" fill="#f8fafc" font-size="11" font-family="Arial" font-weight="bold" text-anchor="middle">MHN-S</text>
</g>
<g id="WALL_BLDG_F_FRONT">
<line x1="337.5" y1="360.0" x2="337.5" y2="300.0" stroke="#38bdf8" stroke-width="4"/>
<line x1="337.5" y1="270.0" x2="337.5" y2="180.0" stroke="#38bdf8" stroke-width="4"/>
<text x="345.5" y="267.0" fill="#f8fafc" font-size="11" font-family="Arial" font-weight="bold" text-anchor="middle" transform="rotate(90 345.5 267.0)">F-F</text>
</g>
<g id="WALL_BLDG_E_FRONT">
<line x1="242.5" y1="360.0" x2="242.5" y2="300.0" stroke="#38bdf8" stroke-width="4"/>
<line x1="242.5" y1="270.0" x2="242.5" y2="180.0" stroke="#38bdf8" stroke-width="4"/>
<text x="234.5" y="267.0" fill="#f8fafc" font-size="11" font-family="Arial" font-weight="bold" text-anchor="middle" transform="rotate(-90 234.5 267.0)">E-F</text>
</g>
<g id="WALL_AREA_SIDE_HALL_A_NORTH">
<line x1="55.0" y1="140.0" x2="120.0" y2="140.0" stroke="#fca5a5" stroke-width="4"/>
<text x="87.5" y="131.0" fill="#f8fafc" font-size="11" font-family="Arial" font-weight="bold" text-anchor="middle">SHA-N</text>
</g>
<g id="WALL_AREA_SIDE_HALL_A_SOUTH">
<line x1="55.0" y1="760.0" x2="120.0" y2="760.0" stroke="#fca5a5" stroke-width="4"/>
<text x="87.5" y="769.0" fill="#f8fafc" font-size="11" font-family="Arial" font-weight="bold" text-anchor="middle">SHA-S</text>
</g>
<g id="WALL_AREA_SIDE_HALL_A_EAST">
<line x1="120.0" y1="740.0" x2="120.0" y2="615.0" stroke="#fca5a5" stroke-width="4"/>
<line x1="120.0" y1="585.0" x2="120.0" y2="300.0" stroke="#fca5a5" stroke-width="4"/>
<line x1="120.0" y1="270.0" x2="120.0" y2="160.0" stroke="#fca5a5" stroke-width="4"/>
<text x="128.0" y="450.9" fill="#f8fafc" font-size="11" font-family="Arial" font-weight="bold" text-anchor="middle" transform="rotate(90 128.0 450.9)">SHA-E</text>
</g>
<g id="WALL_BLDG_I_FRONT">
<line x1="55.0" y1="760.0" x2="55.0" y2="140.0" stroke="#38bdf8" stroke-width="4"/>
<text x="47.0" y="450.0" fill="#f8fafc" font-size="11" font-family="Arial" font-weight="bold" text-anchor="middle" transform="rotate(-90 47.0 450.0)">I-F</text>
</g>
<g id="WALL_AREA_SIDE_HALL_B_NORTH">
<line x1="460.0" y1="140.0" x2="525.0" y2="140.0" stroke="#fca5a5" stroke-width="4"/>
<text x="492.5" y="131.0" fill="#f8fafc" font-size="11" font-family="Arial" font-weight="bold" text-anchor="middle">SHB-N</text>
</g>
<g id="WALL_AREA_SIDE_HALL_B_SOUTH">
<line x1="460.0" y1="760.0" x2="525.0" y2="760.0" stroke="#fca5a5" stroke-width="4"/>
<text x="492.5" y="769.0" fill="#f8fafc" font-size="11" font-family="Arial" font-weight="bold" text-anchor="middle">SHB-S</text>
</g>
<g id="WALL_BLDG_J_FRONT">
<line x1="525.0" y1="760.0" x2="525.0" y2="140.0" stroke="#38bdf8" stroke-width="4"/>
<text x="533.0" y="450.0" fill="#f8fafc" font-size="11" font-family="Arial" font-weight="bold" text-anchor="middle" transform="rotate(90 533.0 450.0)">J-F</text>
</g>
<g id="WALL_AREA_SIDE_HALL_B_WEST">
<line x1="460.0" y1="740.0" x2="460.0" y2="615.0" stroke="#fca5a5" stroke-width="4"/>
<line x1="460.0" y1="585.0" x2="460.0" y2="300.0" stroke="#fca5a5" stroke-width="4"/>
<line x1="460.0" y1="270.0" x2="460.0" y2="160.0" stroke="#fca5a5" stroke-width="4"/>
<text x="452.0" y="450.9" fill="#f8fafc" font-size="11" font-family="Arial" font-weight="bold" text-anchor="middle" transform="rotate(-90 452.0 450.9)">SHB-W</text>
</g>
<g id="WALL_AREA_CONNECTOR_A_NORTH">
<line x1="120.0" y1="740.0" x2="180.0" y2="740.0" stroke="#fca5a5" stroke-width="4"/>
<text x="150.0" y="731.0" fill="#f8fafc" font-size="11" font-family="Arial" font-weight="bold" text-anchor="middle">CNA-N</text>
</g>
<g id="WALL_AREA_CONNECTOR_A_SOUTH">
<line x1="120.0" y1="780.0" x2="180.0" y2="780.0" stroke="#fca5a5" stroke-width="4"/>
<text x="150.0" y="789.0" fill="#f8fafc" font-size="11" font-family="Arial" font-weight="bold" text-anchor="middle">CNA-S</text>
</g>
<g id="WALL_AREA_CONNECTOR_A_WEST">
<line x1="120.0" y1="780.0" x2="120.0" y2="760.0" stroke="#fca5a5" stroke-width="4"/>
<text x="112.0" y="770.0" fill="#f8fafc" font-size="11" font-family="Arial" font-weight="bold" text-anchor="middle" transform="rotate(-90 112.0 770.0)">CNA-W</text>
</g>
<g id="WALL_AREA_CONNECTOR_B_NORTH">
<line x1="400.0" y1="740.0" x2="460.0" y2="740.0" stroke="#fca5a5" stroke-width="4"/>
<text x="430.0" y="731.0" fill="#f8fafc" font-size="11" font-family="Arial" font-weight="bold" text-anchor="middle">CNB-N</text>
</g>
<g id="WALL_AREA_CONNECTOR_B_SOUTH">
<line x1="400.0" y1="780.0" x2="460.0" y2="780.0" stroke="#fca5a5" stroke-width="4"/>
<text x="430.0" y="789.0" fill="#f8fafc" font-size="11" font-family="Arial" font-weight="bold" text-anchor="middle">CNB-S</text>
</g>
<g id="WALL_AREA_CONNECTOR_B_EAST">
<line x1="460.0" y1="780.0" x2="460.0" y2="760.0" stroke="#fca5a5" stroke-width="4"/>
<text x="468.0" y="770.0" fill="#f8fafc" font-size="11" font-family="Arial" font-weight="bold" text-anchor="middle" transform="rotate(90 468.0 770.0)">CNB-E</text>
</g>
<g id="WALL_AREA_CONNECTOR_C_NORTH">
<line x1="120.0" y1="120.0" x2="180.0" y2="120.0" stroke="#fca5a5" stroke-width="4"/>
<text x="150.0" y="111.0" fill="#f8fafc" font-size="11" font-family="Arial" font-weight="bold" text-anchor="middle">CNC-N</text>
</g>
<g id="WALL_AREA_CONNECTOR_C_SOUTH">
<line x1="120.0" y1="160.0" x2="180.0" y2="160.0" stroke="#fca5a5" stroke-width="4"/>
<text x="150.0" y="169.0" fill="#f8fafc" font-size="11" font-family="Arial" font-weight="bold" text-anchor="middle">CNC-S</text>
</g>
<g id="WALL_AREA_CONNECTOR_C_WEST">
<line x1="120.0" y1="140.0" x2="120.0" y2="120.0" stroke="#fca5a5" stroke-width="4"/>
<text x="112.0" y="130.0" fill="#f8fafc" font-size="11" font-family="Arial" font-weight="bold" text-anchor="middle" transform="rotate(-90 112.0 130.0)">CNC-W</text>
</g>
<g id="WALL_AREA_CONNECTOR_D_NORTH">
<line x1="400.0" y1="120.0" x2="460.0" y2="120.0" stroke="#fca5a5" stroke-width="4"/>
<text x="430.0" y="111.0" fill="#f8fafc" font-size="11" font-family="Arial" font-weight="bold" text-anchor="middle">CND-N</text>
</g>
<g id="WALL_AREA_CONNECTOR_D_SOUTH">
<line x1="400.0" y1="160.0" x2="460.0" y2="160.0" stroke="#fca5a5" stroke-width="4"/>
<text x="430.0" y="169.0" fill="#f8fafc" font-size="11" font-family="Arial" font-weight="bold" text-anchor="middle">CND-S</text>
</g>
<g id="WALL_AREA_CONNECTOR_D_EAST">
<line x1="460.0" y1="140.0" x2="460.0" y2="120.0" stroke="#fca5a5" stroke-width="4"/>
<text x="468.0" y="130.0" fill="#f8fafc" font-size="11" font-family="Arial" font-weight="bold" text-anchor="middle" transform="rotate(90 468.0 130.0)">CND-E</text>
</g>
<g id="WALL_AREA_MID_CUT_A_NORTH">
<line x1="120.0" y1="585.0" x2="242.5" y2="585.0" stroke="#fca5a5" stroke-width="4"/>
<text x="181.3" y="576.0" fill="#f8fafc" font-size="11" font-family="Arial" font-weight="bold" text-anchor="middle">MCA-N</text>
</g>
<g id="WALL_AREA_MID_CUT_A_SOUTH">
<line x1="120.0" y1="615.0" x2="242.5" y2="615.0" stroke="#fca5a5" stroke-width="4"/>
<text x="181.3" y="624.0" fill="#f8fafc" font-size="11" font-family="Arial" font-weight="bold" text-anchor="middle">MCA-S</text>
</g>
<g id="WALL_AREA_MID_CUT_B_NORTH">
<line x1="337.5" y1="585.0" x2="460.0" y2="585.0" stroke="#fca5a5" stroke-width="4"/>
<text x="398.8" y="576.0" fill="#f8fafc" font-size="11" font-family="Arial" font-weight="bold" text-anchor="middle">MCB-N</text>
</g>
<g id="WALL_AREA_MID_CUT_B_SOUTH">
<line x1="337.5" y1="615.0" x2="460.0" y2="615.0" stroke="#fca5a5" stroke-width="4"/>
<text x="398.8" y="624.0" fill="#f8fafc" font-size="11" font-family="Arial" font-weight="bold" text-anchor="middle">MCB-S</text>
</g>
<g id="WALL_AREA_NORTH_CUT_A_NORTH">
<line x1="120.0" y1="270.0" x2="242.5" y2="270.0" stroke="#fca5a5" stroke-width="4"/>
<text x="181.3" y="261.0" fill="#f8fafc" font-size="11" font-family="Arial" font-weight="bold" text-anchor="middle">NCA-N</text>
</g>
<g id="WALL_AREA_NORTH_CUT_A_SOUTH">
<line x1="120.0" y1="300.0" x2="242.5" y2="300.0" stroke="#fca5a5" stroke-width="4"/>
<text x="181.3" y="309.0" fill="#f8fafc" font-size="11" font-family="Arial" font-weight="bold" text-anchor="middle">NCA-S</text>
</g>
<g id="WALL_AREA_NORTH_CUT_B_NORTH">
<line x1="337.5" y1="270.0" x2="460.0" y2="270.0" stroke="#fca5a5" stroke-width="4"/>
<text x="398.8" y="261.0" fill="#f8fafc" font-size="11" font-family="Arial" font-weight="bold" text-anchor="middle">NCB-N</text>
</g>
<g id="WALL_AREA_NORTH_CUT_B_SOUTH">
<line x1="337.5" y1="300.0" x2="460.0" y2="300.0" stroke="#fca5a5" stroke-width="4"/>
<text x="398.8" y="309.0" fill="#f8fafc" font-size="11" font-family="Arial" font-weight="bold" text-anchor="middle">NCB-S</text>
</g>
<g id="BLDG_A">
<circle cx="251.5" cy="630.0" r="10" fill="#111827" stroke="#38bdf8" stroke-width="2"/>
<text x="251.5" y="634.0" fill="#38bdf8" font-size="12" font-family="Arial" font-weight="bold" text-anchor="middle">A</text>
</g>
<g id="BLDG_B">
<circle cx="328.5" cy="630.0" r="10" fill="#111827" stroke="#38bdf8" stroke-width="2"/>
<text x="328.5" y="634.0" fill="#38bdf8" font-size="12" font-family="Arial" font-weight="bold" text-anchor="middle">B</text>
</g>
<g id="BLDG_C">
<circle cx="276.5" cy="450.0" r="10" fill="#111827" stroke="#38bdf8" stroke-width="2"/>
<text x="276.5" y="454.0" fill="#38bdf8" font-size="12" font-family="Arial" font-weight="bold" text-anchor="middle">C</text>
</g>
<g id="BLDG_D">
<circle cx="343.5" cy="450.0" r="10" fill="#111827" stroke="#38bdf8" stroke-width="2"/>
<text x="343.5" y="454.0" fill="#38bdf8" font-size="12" font-family="Arial" font-weight="bold" text-anchor="middle">D</text>
</g>
<g id="BLDG_E">
<circle cx="251.5" cy="270.0" r="10" fill="#111827" stroke="#38bdf8" stroke-width="2"/>
<text x="251.5" y="274.0" fill="#38bdf8" font-size="12" font-family="Arial" font-weight="bold" text-anchor="middle">E</text>
</g>
<g id="BLDG_F">
<circle cx="328.5" cy="270.0" r="10" fill="#111827" stroke="#38bdf8" stroke-width="2"/>
<text x="328.5" y="274.0" fill="#38bdf8" font-size="12" font-family="Arial" font-weight="bold" text-anchor="middle">F</text>
</g>
<g id="BLDG_G">
<circle cx="290.0" cy="729.0" r="10" fill="#111827" stroke="#38bdf8" stroke-width="2"/>
<text x="290.0" y="733.0" fill="#38bdf8" font-size="12" font-family="Arial" font-weight="bold" text-anchor="middle">G</text>
</g>
<g id="BLDG_H">
<circle cx="290.0" cy="171.0" r="10" fill="#111827" stroke="#38bdf8" stroke-width="2"/>
<text x="290.0" y="175.0" fill="#38bdf8" font-size="12" font-family="Arial" font-weight="bold" text-anchor="middle">H</text>
</g>
<g id="BLDG_I">
<circle cx="64.0" cy="450.0" r="10" fill="#111827" stroke="#38bdf8" stroke-width="2"/>
<text x="64.0" y="454.0" fill="#38bdf8" font-size="12" font-family="Arial" font-weight="bold" text-anchor="middle">I</text>
</g>
<g id="BLDG_J">
<circle cx="516.0" cy="450.0" r="10" fill="#111827" stroke="#38bdf8" stroke-width="2"/>
<text x="516.0" y="454.0" fill="#38bdf8" font-size="12" font-family="Arial" font-weight="bold" text-anchor="middle">J</text>
</g>
<g id="CORNER_A">
<circle cx="135.0" cy="760.0" r="7" fill="#111827" stroke="#fbbf24" stroke-width="2"/>
<text x="147.0" y="756.0" fill="#fbbf24" font-size="12" font-family="Arial" font-weight="bold">Corner A</text>
</g>
<g id="CORNER_B">
<circle cx="445.0" cy="760.0" r="7" fill="#111827" stroke="#fbbf24" stroke-width="2"/>
<text x="457.0" y="756.0" fill="#fbbf24" font-size="12" font-family="Arial" font-weight="bold">Corner B</text>
</g>
<g id="CORNER_C">
<circle cx="135.0" cy="140.0" r="7" fill="#111827" stroke="#fbbf24" stroke-width="2"/>
<text x="147.0" y="136.0" fill="#fbbf24" font-size="12" font-family="Arial" font-weight="bold">Corner C</text>
</g>
<g id="CORNER_D">
<circle cx="445.0" cy="140.0" r="7" fill="#111827" stroke="#fbbf24" stroke-width="2"/>
<text x="457.0" y="136.0" fill="#fbbf24" font-size="12" font-family="Arial" font-weight="bold">Corner D</text>
</g>
</svg>
